<mxfile host="65bd71144e">
    <diagram id="QwpmZPxPpwarGXNroT3w" name="Page-1">
        <mxGraphModel dx="1095" dy="790" grid="1" gridSize="10" guides="1" tooltips="1" connect="1" arrows="1" fold="1" page="1" pageScale="1" pageWidth="1920" pageHeight="1200" math="0" shadow="0">
            <root>
                <mxCell id="0"/>
                <mxCell id="1" parent="0"/>
                <mxCell id="2" value="Cron Job" style="rounded=0;whiteSpace=wrap;html=1;strokeWidth=2;fontSize=14;fillColor=#fad7ac;strokeColor=#b46504;" vertex="1" parent="1">
                    <mxGeometry x="230" y="80" width="120" height="60" as="geometry"/>
                </mxCell>
                <mxCell id="3" value="Cron Job" style="rounded=0;whiteSpace=wrap;html=1;strokeWidth=2;fontSize=14;fillColor=#fad7ac;strokeColor=#b46504;" vertex="1" parent="1">
                    <mxGeometry x="230" y="410" width="120" height="60" as="geometry"/>
                </mxCell>
                <mxCell id="4" value="" style="endArrow=none;dashed=1;html=1;entryX=0.5;entryY=1;entryDx=0;entryDy=0;exitX=0.5;exitY=0;exitDx=0;exitDy=0;strokeWidth=2;fontSize=14;startArrow=none;" edge="1" parent="1" source="20" target="2">
                    <mxGeometry width="50" height="50" relative="1" as="geometry">
                        <mxPoint x="740" y="460" as="sourcePoint"/>
                        <mxPoint x="790" y="410" as="targetPoint"/>
                    </mxGeometry>
                </mxCell>
                <mxCell id="5" value="" style="endArrow=none;dashed=1;html=1;exitX=0.5;exitY=0;exitDx=0;exitDy=0;strokeWidth=2;fontSize=14;startArrow=none;" edge="1" parent="1" source="7">
                    <mxGeometry width="50" height="50" relative="1" as="geometry">
                        <mxPoint x="450" y="662" as="sourcePoint"/>
                        <mxPoint x="450" y="152" as="targetPoint"/>
                    </mxGeometry>
                </mxCell>
                <mxCell id="6" value="" style="shape=image;verticalLabelPosition=bottom;labelBackgroundColor=#ffffff;verticalAlign=top;aspect=fixed;imageAspect=0;image=data:image/png,iVBORw0KGgoAAAANSUhEUgAAAggAAAEICAYAAAA6FAz+AAAAAXNSR0IArs4c6QAAIABJREFUeF7snXWclNX3xz/nmdnZ7iUFFWxUDJZFxMDun4HdLdjN18JERRELuxMUE/NrYVC7C4qF3Si5u7MxPfOc3+sui19i4nkmn5k99yX/uDfOed8nPnOfc88lSBECQiAnCTBzHwAEYF8AEwFURnD0MQDjuv7mJCJ3TgIRp4SAEDBFQD08pAgBIZAjBJg5H8BgAH0BvATAbtK1+wG8B2A6EbHJtlJdCAiBHCIgAiGHJlNc6d4EmHlXAAcD2A/A5gnSGA/gHwCPEZEvwb6kuRAQAllIQARCFk6amCwEVifAzPsDGANg065/yQLUBqAewBT1j4i8yepY+hECQsD6BEQgWH+OxEIhEJYAM48AcDeAzQCUpBCTB4CKS7iAiJ5L4TjStRAQAhYiIALBQpMhpgiBWASYuTeAAgANAHrEqp+Cv68AcD2AVwEsJaJgCsaQLoWAELAAAREIFpgEMUEIxCLAzP0BDOvabbB1rPpr/Z1/WBTAohXBde53m0bBkYMLzAYyqu6XALgJwO9E9JZJe6S6EBACWUBABEIWTJKY2L0JMPOtAAYBOMgsiTcb3K5flwSL5v7gw4+LAuvc76TBf8JuJY7yIk0/YFhRoKZUU7sgzJR2AGrnwywiesNMQ6krBISAtQmIQLD2/Ih13ZgAM6vcBdsC2MMshmc+crXM+d5b8f1fgUCbW3fEau+wE2/c167vvGWh75hdi/JLCjVbrDZr/f0vAD8COJ2IfjfZVqoLASFgQQIiECw4KWJS9yXAzOqeHAXgUQDFZvMYfLjAGxj/gpPdXj0vqHcmSTJVbBpxgQO0y1YFi248obKfqcYrK3cAcBGRipWQIgSEQBYTMP0AyWJfxXQhYEkCzKxiAFRiI5X5cK5ZI5c6Q/D5GYfetIyJzIuCSOPZNAocumOR97iRxSW9Km3ksJt+XDwF4GYAf0guBbOzKvWFQOYJmL7jM2+yWCAEcoNAlzBQWQ+HA7gIwEZmPPunOYSvfvPjkXfb8cey1G0mIFDgnINK7H2q7LTP9oVmTFxV90oAv3RlZ5RcCvEQlDZCIAMERCBkALoMKQSYWZ2PcAAAlctgO5NEeNKrrfT70iBmf5e+JIdEwDG7FmPbgfnYfRu109JUUQrmcQCzAbxCRCq4UYoQEAIWJiACwcKTI6blHgFmVjsRRgPYCsD6ZjwM6ghOfLlV+/mfgLbgV7+ZpkmtW1NmQ/8eNlx7bAX61ZjeIanyKKjVhEeJSMVZSBECQsCiBEQgWHRixKzcIsDM6wFoBFDTFXho+N4Lhlh/8TO3574324oDQYZukSOUVEyCww7MuLVPPLEPakVBZWe8nogm5dZsizdCIDcIGH5I5Ya74oUQSB8BZu7Vle3wYwDVZkb2+llf1hqi+T/728ZPdZabaZuJuntsUxg8de8S6t/DjqJ8MrtFshXAFQA+IaKFmbBfxhQCQmBdAiIQ5KoQAkkmwMxFAI4EcJjZ5Eb+IOvzfvL7P//Zh9fmeuzOjpDpNfwku2Oqu8N3KvJsvaGjcKdBBYHyYi3PVGNAfTc5S50iSUTqyGkpQkAIZJCACIQMwpehc48AM6ttfWq74slmvXvqw47WP5YGSz/9xutzuvS4tguYHTMV9TUCRg4u9A8e4OD9awupqlSLmahpLTtU0qXXVVAjEX2RChulTyEgBGITEIEQm5HUEAJRCTCzBuDMLlGwPQBTv5xfnuUOvFnvsv3wdzDkD7KptlaemkKHFlqv2kab9bOtuP74qp5x2PoTgGYi2iGOttJECAiBBAmIQEgQoDTv3gSYWeUx+ByAEgmm7ieVx+CQG5eCGZ3/crnYNPCILfNbJ51eXRGHnyEAHwDYj4hynFQcdKSJEEgRAVMPtBTZIN0KgawhwNz5C1+lIFYnKj4JoNKM8StaQ2hq13HWvSvQ4e2O7zoKnXNgKe24Rb62Wb+4FkuuBvAOgG8lO6OZK0/qCgHzBEQgmGcmLbopAWbeCcCOAI4CoD4lGC5uH/N/53toxtcezF6YvuRGhg3MQMWrjqpATbmGnbc0nXRJWauEgtrx8BERqV0QUoSAEEgyAREISQYq3eUeAWY+AsBuAEYC2MKMh8EQgvdMb7WvaNf5vfkeud/Wgtej3IadtszHocOLMWh90ysKy5VAAPBfAFOISNI4m7k4pa4QiEFAHlhyiQiBCASYWQXH3QVgQFc+A8P3iy/AwWc/6tDf/9Kb99viAIV0wRyNQN8qG0qLNDx9SU3IppnOo9AMYBGAt4lI5VOQIgSEQBIIGH7gJWEs6UIIWJ5A144EdV+YPv1oVbDhG41u543PO+MJxrM8n3QYuM1AR+ies6pCRfmaQ53/YLKoVYRxACYRkQpulCIEhECcBMzffnEOJM2EgJUJMLPKVrg5gFu7PiUYNtfjZ31RU0if+52348G328t8gc5tj1ISJHD0riW+vbYtcGzcNy9UXEBmE0YpcXBwV9IlyaWQ4FxI8+5JQARC95x38Xo1Asx8bpc4OMcsmOn1bs+vi4O26fXuYJtbVxkUpSSZwKgRxa7BGzryazfLD/Yq18xGNKoARhXQWE9E6iwMKUJACBgkIALBICipllsEmFmdFzAGwJB4sh6+8Kk79N1fPtu78z3eYAhmX1q5BTMN3hTkUWjrAY7g5v3svtP3KSsuLjAdp7AAgPp3ARG1pcFkGUIIZD0BEQhZP4XigBkCzKyu+X0ATATQH0CZmfZf/OLHrdOcWNKss8unZ9398/zlPWBTuZDVecv/bcf7X3jMuJ/xujaNgv162Gx9Kuztk8+uMjV3XcZ/rz47ANhbYhQyPp1igMUJZN0DzuI8xTwLEugSBeo8AJX1sMGsiauOWB5x6WKzTS1T324jPH5hzTpbCU+/ewUW/KrOSMrOctIeJThzv1Koo6fjCGi8HcBNADqISPaZZOclIFankIAIhBTCla4zT4CZqwAcAOA/AAaZsajNzfzL4gDd/1Yb1MpBNpexh5fjiJ2Lw7ow9MJ/sj7V822nVqFnhYatNjB7LlQnktMAfC0xCtl8hYvtqSAgAiEVVKVPSxBg5ou6EhudYcagQAjBaZ912H9dHNJfm+vK+h0JRBS84ohyHDaiKOxOgFwQCGp+i/IJo/cvw1Yb5mHwhqaFQguAsQBmENHPZq4XqSsEcpWACIRcndlu7hcz3wHgYjMYPD4OTvmkQ/t+UZA/+tKjghhzohTla65rjqngvbYrKAnnUK4IhFW+bdTHjk365uHSUeXBimLNzPZIFZAxD8A5RPR1Tky+OCEEEiAgAiEBeNLUmgS6xIHaumjoZ2RIZ55e7+548gNXSVNrCN5AZyBjzhRNg+/qoyr4/3YoCrvbItcEwqqJ61tt55oyDfedXR0sdJCZPM4qK+NWcsZDztwC4kicBHLqQRgnA2mWIwSYWf1avBzA+FguBUPMviDw8mcdf97zRvsGsepn+99zPQYh1vwcMrzYf9Z+JbaKEk3LsxkOZywjovZYfcvfhUCuEhCBkKsz28386kqRfCqAR6K5HtJZRe2H5nzvc039xGX3+rlbJDfq7gJh1TVx1M7FLbtvW1CxQU+7v6bMlh/jNvlVxbAQUXZHqHazZ4G4mzwCIhCSx1J6yiABZi4EoILL+kYyo7lD97w8y13w8DttfmbEejlk0JvkDy0C4X9MbTboO26e33HSniWl2wzMB0H9F7aoLIwqHuG55M+I9CgErE9ABIL150gsNECAmV8FcEikqs/P6MDH3/j8n//sMxSXYGDIrKoSSSB880eg45RJy0s4q7xJjrEb9rbzDpvld5x7YFlJQeRjof4CcC4RTU/OqNKLEMgeAiIQsmeuxNIoBJjVWYrhyyuz3bjz1VZ4/N3xNbiSyaidipwX/F95UVE+rSGQLniouWXWQm9ld724bBr0DXvZm1/4T8+aKAzGEtFt3ZWR+N19CYhA6L5znzOeM/PCrnwH6/j09e9+/5jJTT5vgEtzxuE4HOlTZXdOHlNVtEFP+xoC4cQ7lmPhn4E4esytJjefVLl47+0L+0TwSn1qOJCIZuaW1+KNEIhOQASCXCFZTYCZewCYDWDjtR0J6cCzMzr43ultcp0D+lMX96AtN8hbg4UIhJVXTVWphntGV2PzfhF3Q+5FRB9k9c0ixgsBkwTkwWkSmFS3FgFmvgzAOADrJAHq8DKPHLtYrvGuKXvy4pp1UhGLQPjf9bzb4ALcfprKzB22TAZwKRH5rHUHiDVCIHUE5OGZOrbScxoIMPMzAI4PN9T5DzXz7IVeucZFIBi6EtfvYfOPO7YytO1Ah9oRs3ZRwqCXJE8yhFIq5QgBeXjmyER2VzeiCYTaC9SpvlIUga02yPPefHJVXt8q2xoppE+8Yzkv/DMgzwFAnQbJ5x1UhhP3KInEo5KInHJFCYHuQkAeDN1lpnPQT2ZWxzerxEh16/zcC7A+4tLFWX/QUjKmrcBBGHtEOQ6qC58Tar9xS7G8NZSMobK+j3MOLMMpe4U9skL5tgER/Zn1TooDQsAgAREIBkFJNesRYOYLAdwZzrIH3mprf+y9jm69c2EVl4OGFeHaYyuiTqCstqzEc/hOxcHzDirTigsonLj8kIj2tN6dIBYJgdQQEIGQGq7SaxoIRBMIh41fhj+XBdNghfWGyHdQ8KC6Iq2mTOt8yW26Xh522SrsOU3/Gv/of1ceOeDxw/tWg0tb0aZ3y4RS5UXkn3RmtW2bAY6wp3kSGT7HwXoXhlgkBEwSEIFgEphUtwaBrrMXLgIwMZxF3UkgaETB20+rtOfZV97OeXbog/o7qLjA/MssGOLgwr8C1OHhzhfkMmew/dkZLvy+NNhtVmMmj6nGDpuHz8QtAsEa979YkR4CIhDSw1lGSTIBZq4F8C6A6rW79gbYc9Qty/P/bgrmbAyCw06BE/YocR6za7HKA4HyYi3igQKJoNd1ZrePEdRBKq/EftcsCeoMdWpmzpZoAgHAcCKam7POi2NCYDUCIhDkcshKAsy8E4DPwhl/zTPO4Dvz3OoXcM5c3/l5xBXFGoryteCzl9Xk5a+Z7yjtc3j36234YIEHi5tzL7jx4B0Km8ceUVHhsIeNQ/iZiDZJO3AZUAhkgEDOPEAzwE6GzCCBaALh6qdb8O58TwatS+7Qe2xbiC365fmP3rWYCxxkqVMor3raGWppD9H8n/2hkM4R0xAmkQirhxanWPx9dEtvlBWFXYASgZDEyZSurE1ABIK150esC0OAufP7+JUAbggHKFUCoSifcNo+a36Kf+Td9navPzXnPBy6YxH61dhx0h4Rt91Z4vpo6dBD73/uCb41z23/9o+Aeqsm/bmyfg87Dh5epDpmjcAhhvbH0iCm17tTwkAEQkqwSqdZRiDpN3KW+S/mZiEBZlYh+YvCxR98+Zvfc8OUFu2PpaGk/9J+5PwabLfRmsH9X/3m9zf+6HM88PbKXQDJKD3KNfcJe5QEDxxaVBbhV2wyhkl6H78vDfDyVp1GT25iouSJhOICwsPn1WCztc5JaHXpUJ86UiESPri5d6iiWAu3k0FN9FVEdG/SAUqHQsBiBEQgWGxCxJzYBJhZpcIN+9NxyicunvRKGxidK9FJLfPu7hu2v2AIeODtNjz1QUfC4/WttvPUsT2gYgxsqYk7TNjGWB10eHR8/UcA5z3QFKuqob9/MqEPlEgIVx57rx0PvJU8cbZqjLJCcn50a59IySOmEtExhoyXSkIgiwkk/SGaxSzE9CwhwMw1AJaHM/e5GR2487W2pHsyfPP85feOqe7cMRCp3DTVyW/Uuzuj/c2WnhU2PHNJD3d1mRY+3aHZDi1Q/61GD6sX+OKmIAXiiGWsKbPh6UtqoNhEKqkSCGq8SIIQwAtEdLQFEIsJQiClBEQgpBSvdJ4KAsx8F4AL1u7bH2D9kf+2h554vyPpwXLVZVrzf2/sHfGoP2VLSOfgVU+3BD74whvusJ+wKDSi0Kb98vj64yrsG/VJ7u5BncE//RNs2biPrdymUeS3rHoZ/ujv2Hx9u62kQDNsu5G5ZYZ+z/Q2euajDlPPmgG97Z3ZH7faIHq+pgwJhPcAnEhES40wkDpCIFsJmLpps9VJsTu3CDAzh/Po58XB0KWPNQcXLQ8mPf5AjffZ7X28hQ6KmpKwzaO7J77cFni70V0ei3ppocan7F3qHb5Fvn2TPvaERY3Xz4H/fu5p+2VxoDM3hK6T/vNi/4rJY6qr7DaKqj7OuGfFkpoyrbRHua14pd2ECw4u020akpJLQn1+ufeNNjVvMZ856/e0Y9wxFdh2YHRx8PvSIN84xclf/uZPio1rz9ek06vcu2xdEG5FpwXAhUT0dKw5lr8LgWwmEPNmzWbnxPbcJBBJIHz+sx9n3rsiZU4P37wgeM/oSlusbHqtLt379IcufurD9qi/xp+6uAZb9M/TNS3sfnvDftz2Umvop78DtkAI+m9LA36XtzOIs7Ns0jcPU8ZG/TLSWe+Waa3NL890rbFCss1Ah9oxQAcNK3bvX1uQb7dFX4WIZrCuA+/M9/jumd7qa2rTyyLVVTtFHr+oBhv3ia6X3D7WL3qkuXX+Tz4VJ5CS59jm/fKCz17WI5KwupyIbjc8SVJRCGQhgZTcWFnIQUzOEgLMncGHYb/yp1ogqIF7lNtclx1e5t1tcOE6GRxXRxjSGfe/1R4xcPGdG3qpvuKmHgxx6MWZbtd9b7SVBYIMPeyainGB8Poc95Ibpzp7hzPIpgF2W2fQJD69rU/cNqt1nyUtobZrnmmxLfjV37VSsWZ3syb26QzQjFVGXLoYvkDnSlLsyrE6i/D3vtU2TB/XK1JrEQhxcpVm2UMgZTdX9iAQS7OJADOr7Ikqi+IaRb0gp9d7/DdNaUnLIUOXjSpH7Sb5iBU3cMuLrVjwqw8MYmd7SAfBNvG0KgweYN5Mt4+Dy1tD2vkPNv39d1Oov5F5M7qC8P2iAI6/PWzc5zrD7LN9IU7duxT9e9jg6Dr/wYgtq+oEghy4+JFmW/0PPk3FGqhCRKG7z6rWelVoEZ9JLR06XvzMtfjpD101voCe8CeZWDb3rrLxK1f1CjnsYVNLv9D1mWFJrH7k70IgWwmIQMjWmeumdjPzNwC2XNt9j5+xy+WLfcxISfxBJNzXH1/BG/bK8265fl7UzwkhHXr9Dz53SOeSnbeMfrJiuLH+bgrh2Y/aW99u9BS4fGzYx1QIhFX2jdm/FL2rbDhgqPmNF7qO0ISXWm1XHBkzVANqhURlxvzsWy8++tKbtiu/KF8LXXJYqfvgHYojHVS1OxHNSJtBMpAQSDMBEQhpBi7DJUYgmkDY+bLFiXUeR2uV2W/DXnbPhYeUF40YZPi9bWqk215qxZ/Lg5j7vc9UO1U5lQJB9a9+7599YFno6F2KAwUxAjhNGw/g76ZQyxPvt1e+Nic1GRNj2bTntoW49ZTKSNVEIMQCKH/PagIiELJ6+rqX8cy8P4DHAazzYVitIGRCIKyaAbVXf+sNHU3jjimvLC7QkhZVP2ZyExp/Mi8MVtmVaoGgxlEHSW3Yy66ffUCpbcQg86sjka7i+95sw4cLPP4/l4fMf49J0q0hAiFJIKWbrCQgAiErp617Gs3MTwI4KZz3lz7avOzjr709M01GSYOGO8NnXDRj29RPXc33vdFW5PH/b0eCmfbpFAirxlKrCVP/0xMDu+IK4rF3VZunP+zcFonwG1oT6dlc2z22LcCEUyKmv/gDwFZElHgKTXNmSW0hkBYCIhDSglkGSQaBaAKh9oJ/kjFEUvpQqwlvXx8x+j3qGOp7+/Mfuzpfjsko6VhBWNvOK48uXzJ8s4KaPlW2uDI/Nfzgw9n3JydNc6IMieC/5NDy0NG7FkeKMSknouRMVqLGSnshkGQCIhCSDFS6Sw0BZlZHGqrPC0eEGyFXBEKyMwNmQiAAxBv1sXdcdVR5qdndGroOnjbT7b39ZWdSMzomclWe939l0U7UFIGQCFxpa2kCIhAsPT1i3CoCzPx/AO4D0G9tKr8vCzoPH78s0sE6aYdY6OjMQojDdwq71T+qPbkhEID1e9p91x1bkW9WIDz0TnvTG3PdRUucoWwRCMcR0fNpv8hkQCGQBgIiENIAWYZInAAznw/g7nA9jbmvKdD4oy/l++LNeDFy6wJMPD3q0Q1hu0v2J4bN+uW5nrusR0ylYiYPQiwOz17WQy8pIPSrsZsO1vzur4D/hInLMxaUGM63HTbP9191VIWtT5UtXGarZUQU3/ekWCDl70IgwwREIGR4AmR4YwSiCYQjbl6G35YGjXWUhlpdMQgJZfnTGfrZ9zfRvB99Cd2jB9UVLr72uMqY6Q8TFQjKSEpCkKJKoXzA9Uub2l167PzQaZjLVUPcf3Y16jYLv401VurtNJopQwmBpBJI6OGTVEukMyEQgQAzq1/A4wBcHq6K1QTCzlsV4M4zzK8ehF0dmdyEX5YE/M3tely/qm86odK1b21hSlcQ1PkJR+xc4jl1rxIqLoh+mJWRi/zr3/18ySMtenNHKP5c1EYGMlEnmkAAUExEmUnUYMIHqSoEzBIQgWCWmNRPOwFmHgrgIwAqUHGNMv8nn/+qp532FW0h08vZqXBEI3gb7uqbvGQA6hTJb7wtL3zmqownUdIb1/Vy9qm0xYzP+OnvgH78xOWBkG4uE2WhgzpG719actxu60xN3HiDIQQffKct9OT7HanJPBWHZTeeUOned0hhIVHYsx/kXIY4mEoT6xMQgWD9Oer2FjLzjgBmhQNx7XPOwFsNbrWdzhLX8hVHVPhG7VSU9BebSrU8YVprcPZ3XiWEDIuheXf3NfSpY1FTKHDe/U2ev1YEI560uDb/MQeU8cZ97O5dty6IuUJh9iL++Z8gXz/Fie/+9FtiXjfpm+d5/KKagkKH+pCyTvmRiDYz66PUFwJWJ2CJm8/qkMS+zBKIJhCueaYF78zzZNbArtEJ7HlvfJ+CypLIBw4lYmhTu84t7SE+adIKzReIcHzjWgPMu9tY0ianSw+Mn+p0z/jKG/twBABjDijFCbuVwGHg5MV4fR77RDM+XJC+sxdi2Tnj1t4oLQyrzUQgxIInf89KAiIQsnLauo/RzKy+Qz8H4Ki1vdZ1YNyzLZ0H+Vih3HVWFXYykGp41fHMRo41juSXOu44GAKH9M7jryMWowIhEELg8ffb3Y+80x5VIGy9oUN/4JzqYIGDTMdEqBM3P/rS21ZZTLYhm+THXHVoc+ntR09YVrysVTe8YpLK6yCKQPhJHSBGRIFUji99C4F0ExCBkG7iMp4pAsysXkRhDyP47Fuff/wLTlrRGsr4FsfelTbcfHIlBm8Y+7157gNNnQcvPX1JDbbon6eOOjbFRFX2BTj48iyX65mPXOXLW0MJCwTVwauz3Rj/gjNsX4X55B/UP8/x0Hk1pm1VDZSYe3m2W5/4ciuPGJTvvva4iqLyIi1mEOJRty7z/7I4GBtqXFaZa/TgOdX+2k3zw9niBzCZiC4x16PUFgLWJmD+yWRtf8S6HCMQTSBM+cSFO15ptYTHZ+1XijP2jXQq8P9M/PJXP26Y4sQfy4IoK9Iw9vCywIhBBVxSqMX1Evz4Ky8mvuz0LXHqYeMejK4gRBMIwzbLx8itC1qP2LnY0OeHcBPy1AfqbIV2BlaueFx9dIX7kOFFMc+Jfmeeu+2aZ5yG4yJSeTE4bNQ2e1KfSLY8T0THpXJ86VsIpJuACIR0E5fxTBFg5s0BfBeukVUEgvp1feHB5aFRI4piZv9TJxQ+8f7/zvYpK9JCwzfP7xhzYGlRv2p7XCshX/zi9y9xhuzXPN2yxlL89cdX4IChMd/B/6L9a0UQN09tXeP0SLX3/8ojy1XSI1Pztnrlu19vwzMfrXmeUVWp5n3vpt6GdntYKY12FMElAiHuK0QaWpWACASrzozY1UmAmdWJeeuvjcPl1f33TG/zvDzLHfev2mQhHrZZPt9+WhUX5VPUb+Xqs8KVT7Wgza2vMbRG0HtV2vSpY3vYiwvi+9yuQhb/WBbkv5YHnepX+gY9HeX9a2ymv140t+vo8OhwunR/RbHmKCnUUFUan03KSSUOpn7iQiC0blDl7adXNe22dUF1rHl4/hPX4kmvtMZM9hSrn2T8PYpAaARwBhF9mYxxpA8hYAUCIhCsMAtiQ0QCzOEP/F3wqx+n373CEuR23bqA7zi9Kuq9pLx4/wsPX/lUS7R6/OltfUglHsr2EtLBz3zUQZOjnEpZXED4ZELs974SVLtfscQSSM7cr8x95r4lkZZlLiGiSZYwVIwQAkkgkP1PoiRAkC6sS8DqAiE/j/SLDylrG7VTcdRkRM3tIf20u5tcfy0PRg1U6FFuw+Qx1dioT/xL+pmezcUtId/bjR488FZb1HwQBQ7Co+fXYPP+0b+stHt0HHbTMr2lI/O7GfrX2PHqNT0jIRaBkOmLT8ZPKgERCEnFKZ0lk0DXCY6vh+vTKisI6oX+zg2xz+pZ3BzCQdcvNYRHHdF89dHl2HKDuOIWDY2RqkofLvB6Xp7VEWj40W8osHDIxg7E2hkRDDGe+tAVeOCttrhiNJLpawyBcA2ACbLdMZnEpa9MEhCBkEn6MnZUAsw8E8CItSup/f+XPNrUMWuhL/a2gRQzNioQbprqbH5tjtvwAQ0b983D+BMrs2olYdpMl/7w2+2BFlf4HRXhpqJ2k3w8eG7MMITObaFqe2imS68KW+ipi3u4asq1cALoBwBHENHXmbZTxhcCySAgAiEZFKWPlBBgZhXwNXjtzlUWwRGXLdbBxlMOp8RAADtvmb/szjOrI645rxp32EX/hEI6Yu77X93O6jINk8fUrNikrz2+5AOpcjpMv2/Uu3Hby63w+IxleFzVhSOP9LP2LeWT9iyJysYqAkEj4kOGF+pXHlURyd6RRPRJGtHLUEIgZQREIKQMrXScCIGu/AfzAWwVViBcujiR7pPW1miegUS26p2wR8mSM/ct7RUQTgf5AAAgAElEQVThHICk+RJvR7MW+nDBQ/H/uj9h9xJccHD0LxI//xPwXf54i+/P5cbPiojXn1jt9tquELecXBmpmgiEWADl71lDQARC1kxV9zKUmU8FMBHAOk/in/4OhI65bbmpX+OpomdEICz8I+A9cdJyQ3v+w9lJAO84qCAw9vAyR99qawUvfvqNFxc/0pwQXiMCQQ3w+PvtuP/N9oTGSkbjGAJhDICHiWjNvazJGFj6EAJpJiACIc3AZThjBJj5cQCnhKt98qQV/m/+8Fsigs+IQDj0xmWtf60IJpqvQYkEXHFkOfWptIQ2wiuz3bg5QmpmY7O8stawzRy+q4+u1PpU2aIGIaoEUyrRVKbLZv0cgWuPrdA3Xc8ebpeG2o+5ERG5M22njC8EEiUgAiFRgtI+JQSiCYREluuTbawRgbDXVUvQ0pGcH5TbDHTwA+dUk8Nu7tZ9d57H+9GXHntI74rboM7jsemYkcVttRvnG9pxsDq7qZ+61DZGuLzmYg7C8bfbKHDLSZXabtsURFU+VhEIGiF00SHlfMzI4kjLOSVE5Er2tSb9CYF0EzD3lEm3dTJetyTAzOqF9RiAw8MBsIpAqCzWFr9/c++YmX6SKRAUj89u74NCh/Fb1+tn7/ipTv2d+R6VCnqNhiWFmj7jlt6a2fOirn/eCRWYmKyivumrpftoxSoCQdmoYibUp5EIRQRCsi4M6SejBIw/ZTJqpgzenQgw89nqdLy1X2aKQcOPvqVn39cUO/FAGoCdd1Bp80l7lsbcuphJgRAMAS9+5sKkV6MfavX++N6oLDGeUjkTAuHJD9p58hudMQgZf26dfUAZn7RnMdm0sKaMJ6Kr03AJyhBCIKUEMn6jpdQ76TwrCTDzOV0CYR37j7x1Of+6OGCJ6/bFK3p2DOxtj/gzUhmv69D3vnqJ5nQl6RPDAAceOLcaRj8xqHMQJho48bJfjQ0TT6vijfvmGWL77AyX/vA77eT26Ybqx7oQjawgvDXP03H7S057h4fjDviMZYfRv2/cNy+oPosM6G0Pq6rI9CkYRkeWekIgfQSScnOnz1wZqTsQiCoQblmGX5cELYFBZVBUiZKilWXOUOvRty4vbfMkniZ4xy3yccWRFehTZSxIcdpMt2vCNGexQVi89/aF/quPrtCK8ilmxsJACKHpc93aLS86k/IMMSIQvvrd77nhuRbb78tClghQVQmeVKKncEUEgsGrTqpZmkBSbm5LeyjGZRUBZu4P4BEA+4Qz/MgsEwhzv/e2XPZ4S7nHx8bX79d03HfP6OrOt9CGvezoa1AcqPp7XrVkhbNDN5xkacSgfPd1x1WgssRm+Izo2d/51JGb+OQbn/7yLBWTEJ+fRgTC302h1iueaM5b+FfAsH2pvPijCQQAVUTUksrxpW8hkGoCIhBSTVj6N0WAmesAzAbWzTr48DvtLU984CoJBPWYv3BNDRpnZSMrCB9+6XVf+2xLodfPhu+1bQY4gmOPKOeeFTa13s/lxeE/dMcyu6ld9+1z9ZKoByat3schw4v4qqMqQCt3OJgqKrulx79yR8OMr7yt46c6TW3rNCIQmtv1trGPN+V98WsgejSjKcvjr3zlUeVNh+xQVKWFD/GcRUQ7xd+7tBQCmSdg+kGQeZPFglwmwMzDAMwN5+N1zznxZkPyIucT5WhEIMz5ztty+RPhVxDUa7+yxKY78jq3HvKUy3ugpDA+MRDJFzM7Pg7dsQhKICSrMIMnvdrGH3/t6Vw9aXXrutsbfoXBiEBY3qq3jn2iOe+r3/yWWEFQ/qnjudWx1WHKd0Q0KFkspR8hkAkCIhAyQV3GDEuAufNX9iEAXskVgbC4JeQ8ZsLyso7VYhAGD3BwjzKNigo0/YTdS7wDe9tT9sIzKhDybMQn7F6in31gqbEAB5PXsM7gd+Z7XJ9+7S3Rdea5P/ho9XMbjAiEXxYHO655ptn+49/BjAcprnL/kwl9IALB5MUg1bOGgAiErJmq3DeUmdXLaZZKrre2t8ucodD1zzup/gdfvN/ykw7w+bE92jftmxfrREne66oltO1AR/tWGzo66+6xbaHer9qWFj/Of7CpffZ3sU+97NfDxneeUR0a0Mue8lzOzNBfnePS2j2MNhcH3vvcHTj/4LKiWHkQ5nznc4+f6rQtcYYMfzZJ+qSv1WEUgaAOCzmaiD5NtQ3SvxBIFQERCKkiK/2aJsDM6uUUCNfwzQY3T5jWqr5zW+aaPfuAMvepe5fE/PX/xS9+rN/T5q8utaU9+v7zn33+M+9tijnuFuvnBZ65pEfaYzt8AdZ/XxoM9Si35VWVRtdMUz5x+e9+vU0LhjqvE0uUfYcULbvpxIpwp3mGVLAtEamzGaQIgawkYJmHbVbSE6OTSiCaQFCpfSe+HD3ZT1KNMdBZgQPOmbf3Td5HewNjmq2i64Dbr+Ou19rw2px14zfy86jl3Rt7Var1jKL8tCxqmHXh3/pPvN+O+yxwWNPqDqhDmRrv6hMJ3LNEdELcDktDIZBhAiIQMjwBMvz/CDDzjl2fGNbAooLBnpvRwXe93maZN5imUbBPlc32+jU9s+oeOuKWZaGQDltpodZx3oGlqN00P2qiJytdny/PcuHe6e2hjs5AR+usJEU5j+NFACcQkd9KHMUWIWCUQFY93Iw6JfWykwAzqwfpOsvcy1tDwRumOP1zvvPFXM5Ph+c9ym2BYZs52i8bVV5RXKBZRrSkw/dMj/Fmg7vtifc67H8sD1riWlA8XrumV7BfjS3cZ4+fAIwhog8zzU3GFwLxEBCBEA81aZMSAswc9mjAr37z49S7Vqi/Zfx67VFuC43ev8yzz/YFBQUOssy38JRMiEU7XfCr3z1zoc/+5PvtMWMr0uHCXtsVBm45uTJS/MZFRHRXOuyQMYRAsglk/IGbbIekv+wlEEMgZMSx4nxyHrVrSWDYZvnVGkGlIeYBvfN0h33dRE4ZMbCbDqqCGxf+Gfh39WZJi9723IyO1u8X+VUmzrSW9Xva8cpV4eIUO80QgZDW2ZDBkklABEIyaUpfcRNg5vEArgzXQdcKQtx9x2pYXEA87Yqe7vJibZ1zC4jAdqUMtMyuXnzxqz900xQnL2kJ/btqsc/2hRh3bPpiJOd851ty6WPNvVfnOXiAo+OBc6ozHsfAAAeDDJ3XnaeZ33ox9onUZT2OIRDUNX07EVnjAJFYN4P8XQisRkAEglwOliDAzF8A2HZtY0I6eN9xS5pa2o2fKWDUoV6VNjxxUQ16xjhwyWh/8dTzB6EvcwbhC3RmU+wsP/4dCE5+q42XNodibjs8Zc8S/fR9Syk/j1J6L//8T9B39IRlhvIPbDfQ4f/PkRVrLP+XFpHeszw9uR8izYPaJvvKbBdCyTlY899hakptobtHV7s262cvCzO2Ega7EpFKHy5FCGQVgZQ+VLKKhBibUQKRBEIgxBh+sco5k+TC4AmnVmGPbcPnyU3yaJ3ddXj04Je/B0LN7f9L9LOkSfe/MqdDX96qx5Ud0G6D95ELavK23sCRkgyIqzgce9tyJVzixrLVBnneUTsVr+HjgJ5231YbOgyJjrgHXqvh3lcvQXN7khWCOlmstpDHn1AZ6Xm6MxHNTJYP0o8QSBcBEQjpIi3jRCTAzBsAeA/ApmtXSpVA2KJ/nufaYytsG/fNS0ugm87QZ3zp7bhlmtPh7IhPDEQAyI9eUKMyNab0CktUIIQzbrN+eZ6nLq5x2G2UUnGz+tiHjV/e8ueyQGWyYe07pBA3nRixWxEIyQYu/aWFgAiEtGCWQaIR6Io/uATAOr8mp33m8kx4qTXpp/ftvGVB29VHl9ury4wfbez2Md/6Yqv/z+XBTjuvOrrCuUlfu9EgAP7vfI9+1dMtSX0ZHjuyGKP3L0NRfmpv5fk/+V1nTV6xToxGIle2OsNgxq19WDN4euTbjZ7QtJkuYoaKCOFhmzo8Yw4oM7Xdcf9rl3iXOZMq0DoRxBAITwI4k4jiX4JJBLS0FQJxEkjtUyVOo6RZ9yLAzI8AOD2c10Mv/AfhNz8mxkhd+LeeUqnORYjZ0dVPtbjfX+AtYLCmMhOuKp3nLhKwy5YFmHh6Vcx+6n/weS97tCXo9utJC+q75LByHLNrUt/bEf0wevBTTBBdFfbernD5zSdX9ohV39mhh/a+ZolNXQerXwud+DvPwSR+87qe1LMitvZK1SeGyhLNfeVRFfpugwvCza3aoltMRJ5YvsrfhYCVCIhAsNJsdFNbogmEZL+UVkc85oCywF7bF2L9GtsawYC/LgnC5dX1B95qb2v40WdoheCs/Uv5jH1KY95P97/Vrj/+XnuXtEhswjddz+G/9thy3qxfXlq+41/wYNPyWd/5Yr7QjXilMlE23NnHUB4Jo9eAXQMfsmOR59DhxUW9K22hsiLNtip0c0VbCJNebW//YIGnWNfDHzltxO5odS46pAzH7RZR+xWJQEiUsLRPN4GYD7R0GyTjdT8CmRIIinTfanvHKXuWrPFUn/xmG1pd5gLZjhtZHDjnoDLNYY/+PX3mt77ALS86bUudoYQzMO5XW4gbTzD3OV2dx7DyVzhjm4EODOwdc6PEvxekiv4fdtE/SblADxle1HH10RUxV1L+Wh70HXqTsd0Tqxu29/YFniEb5xdotFIifPqNF599602K7ZE6EYGQUrzSeQYIiEDIAHQZck0CmRQIyZqLfjV2lU1P26J/Xsx17lunOd2vzHIXhtuzb9SemjKtMyiudhPjiwdPftCB+95s+3eZXgU2KoHRpyqmyZ1mKWEx+c02fuqDjoSeG+v3sHkePLcmv2dF7G2Plz3W4pvxlce4k0YBpqCeCIQUQJUuM0ogoRs9o5bL4DlDIBcEgpqMu86qwk6DYu9WbG7XQ4eNX2rr8ITNLG1oXgf0smPalRGz963Tx0szXZ57p7c5XD5eQw2csmdJ6zkHlZUbGhTAN7/7cfKdK4xWD1vv8lHloVE7FWu22Mmn+P9uWEr/NKmTk61fRCBYf47EQnMERCCY4yW1U0AgapDiBf8g/tdoCoyN0eV7N/VGVWnsrwfqhMqhF/4T9/331MU9lm25QZ4hhaB++U94qRUvzXSFtb7+zj6wdUZcxi6LW0LBq55yer/6zRfz80C43tQ3evUiNVL+80QLPliQHXF9mgb/ZYeV8xE7F4db7ZAgRSMTLnUsR8DYU8FyZotBuUSAmScBOA/AOkFrj/y3vfWht9sN/8LNNJd7Rldjxy2MrYgfP3G55/u/ArG3UazllEYUbLjLWICfavpGvRvXP++MiKbAobXPvL13qVF20z5zdQoOs6WkQAudc1BZ6IidimImbVBBhdc840Tjjz6zw2Sk/t7bF/L4EytB4bdsvgFglGxzzMjUyKAJEBCBkAA8aZocAsxcB+BFACph0holVYmSkmN5+F4a7+qrXhQxiwqEvPqZFsz5ztxL8NjdSlwXH1JmaG+jGmPiK614Z170X+K3nFyJvbYzplW++MWPm19w4relxo8XsNuACw42vCWTVbzE5DfaDFCMiTnlFUgj/dDhRYErjyyPpAwlUVLKZ0EGSAWBrLgBU+G49GktApFSLesMPPR2Ox57r91aBkexRiUvuvhQY4sefywLhsZPdfLnv/gNbflTw352ex8UOozduj8sCoSOu315zCjEzfvl4dnLjO9gVCsSamXCaBlzQJn7tL1LDCU1+mVxAOOedfIPiwLGnDRqRIrq1ZRpfPdZ1YHN+kXMyikCIUXspdvUEsiKGzC1CKR3KxBg5ndVSvtwtvy8OBA89/4m/4o23dALJtP+FBeQftOJFe07b1kYUyWoWIQXP3O573uz3eH26TH3HF55VHnwkOHF6oBJQ+XgG5fx3yuCMWvn5xFO2rMEZ+5r7EvDnO997dc+6yxsbv/f6ZKRDOpVbmt/dVyvIiNHZPuDzDdNbXW+3eg2t3/TEI3UVHr+8p7eTdezR4pOfRTAWCJqTs3o0qsQSB2BmA+O1A0tPQuBNQkwR86ZOG2mCxNfbk36SXypmoNdtirA7adVIfZGvpUWXPZos3vG1161xh/xnlSfLR46rxrbb2QsxuHtRs+ycc+2GApkVDbstV2h/5pjKlTa5pgxAqr+MROW4ad/on9myLNTcOrYHrYNetoNPWua2nTsc82SVE1L0vutKiXnezf1iZRMSyXTuIiI7kn6wNKhEEgDAUM3bRrskCGEAJj5MwA7RULx+PsdePy9dnj92bGv4cTdS0KjDyglh70zIXDMcuFDzcGZC72qbtj6QzdxeK49rjKvd6Ut5ueIRSuCwcNvXmYPmtwheM5BZcHjdyu25f2bgzCy2eOntnpfneOKuK+zR7kN1x5bgR02NyZoWjr0wF5XLYm5ihITZJoqbNw3D09eVIOCyJ975gI4g4i+SZNJMowQSCoBEQhJxSmdJUKAuXOPfj2AIZH6efCd9sCj77ZnxUtk/R52780nV9o375cX84W+yt/xL7T6357nhs/P6/yKj7HPfg1klzza7P7ka6/pTzIb9LB57x5dk9evxhYzbkENGCkNcs9yW+jyw8ttIwfHzguxyvCbX3B2vDLbHdf2yUSuu3jabreRA+OOqUD/HhGnVn1SuICIno2nf2kjBKxAQASCFWZBbOgkwMzqejy8a0dDWCqBIAcPu2mZZ3FLyNjH8gyzHbJxPiadUQV1cqGR4vUzvzPf43nhkw7t58XBf9+u2wxwQC3/b9grttZ4q9HNd77aDqcrZGzQtQzbfdsCz22nVBna0vDyLJf/lhdb1xAzW/TPc57/f2VlQzfNN7RyooZ/4VNXZ5ZHt8/6q0Mb93UExx1TzoPWz4smVGer1TAisr5DRi5MqdMtCcT1AOmWpMTptBBgZvVSvALAuEgD/rUiGDr0xmWGfuGmxegYg/SrseO1awyHAiAYYm7pYL7ssWbtmz/8nb3HOE54DQtUrMbUT8MnRTLCgwh64119Db3cfQHmEZcu/vc5cvNJld7aTfLtVaVabCXTZczrc92445XWrBAHmga1pdEz9oiKohjHVPcnokVGeEsdIWBVAiIQrDoz3dwuZr4fwFmRvsd//bsfoyc3wRfIjh9ogwc42h45v6bUQHrhNWZ+/2uXwkYI3nRSlWubAXkxd0W82eDGdc9FTopk9LJSAZEqn0Osouvg0fc1tXz7u79y3LEVtM8QQwsP/3a78E+//+JHW/wrWkNZ8Wlhs355eC76dlClzHoSkfE9oLEgy9+FQIYIiEDIEHgZNjoBZlaR4R8C2D5SzQ8WeHjCtFa0dOiWv44L80m/5NCyjoOGFZfYtPBBiJH8/HVJsH1gb3vMTyoeH+ORd9vx9EcdCV9eCuhTl/TAoPVjh3ssdYaCP/8T9I0YlG8oedMq43wBDt3xSqvvldlu07ESCTsYRwfbb+zAw+fVRGv5F4BDiOjzOLqXJkLAcgQs/2C1HDExKG0EmPkEAE9HGlDXEZr4itP/8mxPfijEhpbE02Z8mIH697CHrjiiPFi7qcOx6hjiZNoz7ye/Z/TkFeZ+wkcxYIv+efzkxTVs04ztwjDpC9/3ZnvoiffbDX+KMNl/UquPGJQfmHBKVV6UHQsBADcAmEhEqT1XOqmeSWdCIDIBEQhydViaADMfDWBKJCP/XB4MnH1/k31Jc3wBeel2fsNedv2aoyv82wx0qL1/Sb3/jr99mf/7RUFDOQyM+F1aqPG5B5XxqBFFSRVfDLCKk3jhU1dS/TfiUzx1igvIN/G0KnW0dn6UFNofAziViH6LZwxpIwSsSCArblArghOb0kOga2fDoQBejjTi8tYQ9hu3ND0GJWGUimKNbzutqn37jRzGjjU0MOZt05wrXpzpjrr+baCbdarUbuzwXHNMBa1XEzFToKluAyEEbn+5labPdZnO0WBqoCRWPnXvEj5j3zLk2SIKOiUKhhHR8iQOK10JgYwTEIGQ8SkQA2IRYO7MCXApgBsjBS2q5EkqA5/Lmx1Bi8rnQ3csXnLhwaW9iwsS/4F+wLVLOwM2/UFO2m6A8mKt8414yWHl2K82sS8XalYWrQj6J09v83/4pTcrAhJVOusDhxV15juIUpxElDVpoWPda/J3IbA6AREIcj1kBQFm3hnAgwAGRTJ4wS9+//kPNWluH2fFd22V+mH7jfJD1x5XYV+vOjm7Nuf95As++5ELOq9k4PZx6Kd/guzy6lGZ9Kqw+fr3sNkdduo0RCMteMcZFbBplBSWn3zt5WufbfF2eDkxpZHGq3WfIYWh8SdWRpsYdURmLREtTKNZMpQQSBsBEQhpQy0DJUqAmQ/rEglhjx1sdevBSa+0Bt9q9BhP35eoUUlor1IRX354eah/D7st2Tdkq0v3f7jAy8taQ1HzHQ8e4Oio3djhcOQZO4fBjNsvzXLh1hdbzTTJeN2aMpv79XE97fnReUxWCyxEtDJZhRQhkGMEkv08yjE84o7VCDDzbgA+imTXohVB3PC8E5//kl3P7C3Xd+i9Kilw26nVxg4usNrEhLFHrei8NMtFn37jzcuGDImru3Dv6Gr/8C3yowV8PqnO2CKiFVkwFWKiEIiLgAiEuLBJo0wSYObtAETca97u1nH8xOX4u8nkSUWZdGrl2Lz1AAceu6BG1wjJ+eaQIZ++/SOAcx9o4g6vDubk7tZItUvjT6rE3tsVIsqOhekAjiOixBNOpNoZ6V8IJEBABEIC8KRpZgh0BS2+DWCPSBaEdNZ3uXwJ+wKdB0BlVelbbfNdfXSFXrdpftZ8r18d8JG3LFv665Jgr6yCDsBhBy44uJyP2qU42nPxZwDDZeUg22ZX7I2HgAiEeKhJm4wTYOYtug512iqSMVM+7lhxx6vt1UDnIVBZU/barhC3nJy9gfFqN8WISxdnDW9lqEbgfYcU+q49rtJu0xAtMPNqIhqfVc6JsUIgTgJZ9eCM00dplqMEmLkOwMMAtgnnYiDIuHVaK78+151V17kIhPRfsBXFNv2OMyp92wxwRFu1uZmIrkq/dTKiEMgMgax6cGYGkYxqZQLMPATAawD6hbOz1aXjnultUCcGZkuJJRA8PvYU5pNlPz9k4wrCQ+dVQx3NHaVc2ZVGWaVUliIEugUBEQjdYppz20lmvhvA+ZG8VEmUrn66BR9/nR0p8mMJhP3HLWV/kGn3bQr1/xxZrpbHE8+0ZOASCenAPlcvDQFsu2xUOSKd3JhtAuHlq3pig55R0z3cAeBaIor/DG0DfKWKELAaAREIVpsRsScuAsz8O4ANIjWe+7235aqnnaWtrugJg+IaPImN1qu269Ou7Ol32LFGLgePn/H70qD72mdbHL8uCa7zNttn+8Lmcw4qq1plSqGD9MoSlQvQ3A4Cr5+51aVTqCsh5a+LA4F732jHL4sD6xzreMHB5S17bltQ2adqzThQZvCUTzpaJ73aFjUFYRKxxdWVzUb6pNOrQjtukZ8XZceCOqHxHCJ6I65BpJEQyGICIhCyePLE9P8RYGa1PvxfALtG4jLx5dbQ1E9dlt7VcOTOxSpp0tou8JuNbr7uWafhlYIt+ue5jtutJD/PFjXgbq1xiL/+3e9/dY47z+XVDY2VZyPMmdRnHeS/LQngiqec/PM/Acs+Y3YclO+68qiKvN4Vtkj5DtSKwTgimiT3mhDojgQse/N2x8kQnxMjwMzrA7gfwAGRenr43XY8/E57YgOlqLX65T3/nr7r3JMtHTpf80yLPvd7n+XEjaYBl48qx+E7Fa8jap6b4eI7X2s1JDRShDRitwN723H10RUYPCDq4ZejieihdNsm4wkBqxAQgWCVmRA7kkKAmQ8GoFLghg1aVN/Rn/+4A3e/3paU8ZLZyR2nV2HXrdfNEv3nsiAOG78smUMltS/1kn38wnUPklzaEsL1zzvR8KMvqeMl2llFiYYHzqnGJn3X+WqyetcqEdLziY4l7YVANhMQgZDNsye2r0OAVx5S9AyAoyPhWeoM+W+a4vTP+d5nmVMFrzyyouOQHYuKNVo3ZmCXyxcn7YTGVFwy+XnkH71fifeEPUrXOb76h7+D7Rc+2FS0vC1kmdWPjyf01ksK1NpHxNIIYE8isp6KTMUESp9CIAIBEQhyaeQkAWZW8Qh7R3Ju+lxP8I5XWsnl0zP+4qootvGkMyop3HK3ygg57KLFllymX53t0bsU49JR68ROdFY5/8EmzP7OGqsIx+xasuSSw8p6R7no1dkKhxDRrJy8McQpIWCCgAgEE7CkanYRYOYXARwRyeqpn7hw31tt8Pi6QvYz4F6vChuPPaIcu2xVEPZefHWO2z1+qrMoA6aZGnLHLfL1K46qQJ9KW1gxM2byCl/jT/6MHkS1/Sb5POm0SiopjKi31I6F84jodVPOS2UhkKMERCDk6MSKWwAzqxfrDAAq42LYMn2uGzdMcWYM1+7bFvKEkyvVwUBh78Vdxy6Gy5s5AWMUDIFC151QTgfUFoV9+y5pDnkOvH5pxpI7Dd8iH1ccUYG+1REXjFoAnCLiwOiMS73uQEAEQneY5W7qIzOrl9XhAKaodPuRMNw7va31qQ87wq+Pp5BdTZmGB8+t4Q172SPeh9kiEBSm646rwIF14Rc7AiHwJY82eWYv9KV9NWSbgQ6MP7ESvSujfk1SxzefSkTWV2MpvCalayGwOgERCHI95DSBLpEwFsDNkRxtdbO+z9WL/cHQmsmJUg1G/ZqdPi7yoYfnP9gcmP2dN2qofaptNNP/sM3z3TeeUJlfVaKFfRM3/ujDmPuazHSZcN1Chxa6+qhy5z61hdVROlOiIJ+IJI1ywsSlg1wiIAIhl2ZTfIlIgJlv70rHHHbj+1e/+XHpY81obtfTRjGaQFDBiaPva6IvfvZn1T364hU9oXIMhCuf/+zHmfeqGMD0laGb5gcfOKc6Wh7lPwBsR0TqE4MUISAEViOQVQ8fmTkhkAgBZn4JwKhIfXz2rRe3TWvF4pZQIsMYbtuzwsZTx/bwlxVp6y88BUMAACAASURBVATvzf3e57tpitO+xGmd7YFGHDv7gDKcuve6u0dV/okH327jJ97vSNszJ9aZFgC+AHAyEX1lxDepIwS6G4G03azdDaz4az0CzLw5gK+ByOmHX5nt8dz5Wmu+x2cs1XAiXubbiU/ft9R3yl4la2RH+n5RADdOceKHRdm54n3cyGL9okPL14j5WNoa8h9wzdI8RAjGTIRjuLaH7ViEiw4tR6Ej4iNOLWVcTEQqZ4YUISAEwhAQgSCXRbciwMy7A/gwktNeP4eOvW1Z4M/loXVTGqaAVHmRho162z2XHl5h33Q9e94bDd62x99rK/treTAFo6WnSyLwiEEFgZP3KPb272G33/Jia8GiFUH8vDiYlnwOW6yf57n+uErbwN72aHmUVZ6Mo4ioNT1UZBQhkH0ERCBk35yJxQkSYGaVQEm9IMIWnYG6C/9JcBRzzVedu8istmeaa2vV2p0+AVA801j0s/Yr08/YtyRa3MEidfInEaUv4CSNAGQoIZAsAiIQkkVS+skqAsw8GsBEAOucMqQcaXPrOPGOFVC/fKVkBwG7BozaqRiXRcjo2OXFN0S0dXZ4JFYKgcwSEIGQWf4yeoYIMLNKt6v2vqvVhLD3wQ+LAqErn3bqfywNZM1WwwzhtMSwx+9eggsPXuc4iNVt+wnADkTUbAmDxQghYHECIhAsPkFiXuoIMPNIANMArHsUIYBgCKHH3uvwP/5euyOkc8bPbEgdiezveY9tCjomnFoV7fAt9aHjAgAPEJEsC2X/lIsHaSAgAiENkGUI6xJg5i0BfBPJwpYOna94qgXzfvTJvWLRadQ08k/9Tw8a2MsebaXnQQBj5YRGi06imGVJAvLQs+S0iFHpJMDMVQCWR0vHfOB1S7EkTfkR0ul7to9FBEw8rQq7bh1108lrRHRotvsq9guBdBMQgZBu4jKe5Qgws4p4PxvAndFEwqjxy4J/LAtGi463nG+5bJA6lfG8g0oxakTYONNVrjcQ0bBc5iC+CYFUERCBkCqy0m9WEWDmTQE8CmDnSIb/ujTYftyE5QWBEEvQYoZn124jPmnPEv+Y/UujHSGtUmLuQkSzM2yuDC8EspKACISsnDYxOhUEmHkwgMcBDAnXfyAIfvjd9uAT77eLQEjFBJjos7pU879wRU9UFGvRkiGdT0T3muhWqgoBIbAaAREIcjkIgdUIMPP6AOYA6BsOjNvHuPeNNkz7zCXcMkjglat68vo9Ix+TDeA8AA/KjoUMTpIMnfUERCBk/RSKA8kmwMzbdB3kE/H+uPzxZsz40ov0JglMtqfZ11+ejfDqNT3RuzLirlOVHfF6Iroh+7wTi4WAtQiIQLDWfIg1FiHAzG8B2D+SOW6f7jnqlmW2xS16tCVui3iTG2ZUFGuhW06upKGb5kc702EugOOJ6Jfc8Fq8EAKZIyACIXPsZWQLE2BmlXRHnfR3SCQzX5rp7rh1mjNach4Le5hdphHAR+xc5D3//8ryChxapJ0k6rvPuUSkMmRKEQJCIEECIhASBCjNc5cAM6s4hLsAHBHJSxWLMOElORAw1VfBJuvl8fgTK3lgb3XiQsQyioheSbUt0r8Q6C4ERCB0l5kWP+MiwMwDu1YSdgzXQUgHXpvjwi0vikiIC7CBRirfwYv/6YGeFVGzXe9KRJ8a6E6qCAEhYJCACASDoKRa9yXAzJPU0jWAsNsbQzqH7n+zPfTUh648gOWeSuKlkp9HPGtin1hMbwRwMxF5kzi0dCUEuj2BWDdetwckAISAIsDMUwEcFYnGrIU+180vtOQtdUrQYrKuGJtGoXtHV7fWbeZQqbAjFXVC44lEpIITpQgBIZBEAiIQkghTusptAsysku6olYSw5Y16N257qRUev2x+TMKVwHtvX+S/8sgyR0mhFuk59SuAMUT0XhLGky6EgBBYi4AIBLkkhIBBAsxcCOBWAOdHavLZt15c9HCzwR6lWgQCvNs2hfplh5XZosQdtAE4gIhmCkUhIARSQ0AEQmq4Sq85SoCZRwJ4EUCPSC7++HcgdNXTLc7flgSrcxRDytzKzyP9phMrWoZsnF9dVhRtwwL+j4jeSJkh0rEQEAIQgSAXgRAwSYCZLwNwE4CoSZKendERfPrDDk3XobW6dGbI/bY2avUAKnAQ8vMIFSWa56Ure6pVmljlFyLaOFYl+bsQEAKJERCBkBg/ad1NCTDztQCuABDtNMF/6Yx9osXr8ekF3RRXRLfz8zT9gKGF+sjBBUaP0f4CwL5EtExYCgEhkFoCIhBSy1d6z2ECXSsJt+Wwi1ZzbRaAM4loodUME3uEQC4SEIGQi7MqPqWNADOf0nVEdNrG7KYDLQBwLBF91039F7eFQNoJiEBIO3IZMJcIMLNK73cCgCdyyS+L+bIEwFZE1GQxu8QcIZDTBEQg5PT0inPpIsDMNQAe7joB0lBcQrpsy9JxVFZElb+6joj+zFIfxGwhkNUERCBk9fSJ8VYjwMzXAdgOgDroqdZq9mWBPQEAbwOYA+ARIpKkElkwaWJibhIQgZCb8ypeZZgAMw8CMKrLjO0BHAjAaKR+hq1P6/A6ALUz4X0AbgAeIpqYVgtkMCEgBMISEIEgF4YQSDEBZu4HQAmGqMcRptgMq3av8lL/DeAHIvJb1UixSwh0RwIiELrjrIvPQkAICAEhIARiEBCBIJeIEBACQkAICAEhsA4BEQhyUQgBISAEhIAQEAIiEOQaEAJCQAgIASEgBGITkBWE2IykhhAQAkJACAiBbkdABEK3m3JxWAgIASEgBIRAbAIiEGIzkhpCQAgIASEgBLodAREI3W7KxWEhIASEgBAQArEJxCMQNAAquYn6J8XCBIYMGZI3f/58lbpWihAQAkJACAgBUwRiCQStrrb2FCI6FkBeZ8/MpAGXzJk3r8HUSFI5pQS22267vnk228NEVPbvQERL6xsajkjpwNK5EBACQkAI5CSBNQTCDnV1o5l5PIDC1bxVwmDNHPK6vk/9/Pnv5SSRLHCqrq6uGsxvELDtauaquVSnCK4+p7/VNzYOzAKXxEQhIASEgBCwGAEaNnSo+U8FIhDSPo071NVdx8zXmhxYBIJJYFJdCAgBISAEVhIQgZAlV4IIhCyZKDFTCAgBIZAjBEQgZMlEikDIkokSM4WAEBACOUJABEKWTKQIhCyZKDFTCAgBIZAjBEQgZMlEikDIkokSM4WAEBACOUJABEKWTKQIhCyZKDFTCAgBIZAjBEQgZMlEikDIkokSM4WAEBACOUJABEKWTKQIhCyZKDFTCGQ5gR2HDNkoSHQGEVWuckUDnt+7sfGz6wE9y90T800QEIFgAlYmq4pAyCR9GVsI5CaB4UOH7qszX85EFas8JKAYwIYAHP/+P10fU1Ba+ujHH38czE0S4lU4AiIQsuS6EIGQJRMlZgoBixMYNnTo2QDuM2MmiUAwgytn6opAyJKpFIGQJRMlZgoBixMYOnToGA2434yZIhDM0MqduiIQsmQuRSBkyUSJmULA4gREIFh8gixknggEC01GNFNEIGTJRImZQsDiBOqGDBlNmvaAGTNlBcEMrdypKwIhS+ZSBEKWTJSYKQQsTkAEgsUnyELmiUCw0GTICkKWTIaYKQSymEBdbe1ZRPSgGRdkBcEMrdypKwIhS+ZSVhCyZKLETCFgcQLDamvPBNFDZswUgWCGVu7UFYGQJXMpAiFLJkrMFAIWJzB06NAzNOBhM2aKQDBDK3fqikDIkrkUgZAlEyVmCgGLExCBYPEJspB5IhAsNBkSg5AlkyFmCoEsJlA3ZMjppGmPmHFBVhDM0MqduiIQsmQuZQUhSyZKzBQCFidQV1t7GhE9asZMEQhmaOVOXREIWTKXyRIIgwYNcpSUlAxm5vJorhPRioaGhi+timfIkCHldmB7XdO0WDYSEYdCoT8GDhz4+7Rp00Kx6lvl7yNHjizwtrdvA6LCEJEtll3KT2YO2my2P/v37/9XBn3Vhg0bth2CwTIj87PKLyLyNzQ0fBbLTyv8vba2dqCmaRsyMxmxh4h+bWho+M1I3VTXGVZbeyqIHjMzTjYLhKFDh+4KwG7EX03TXD6f7/sFCxY4jdTPRJ2ddtqpMuDxbKlrWn4842u67qufP3+mkbZpFQh1dXW7a8BQI4aFqxMIhZ6eP3/+4mjthw0bVkbMRwKoNjqODqyw2Wyvzpkzp9loG1VPvWzLSkouMtNG1WWiB+rr69vMtEtEIGy99daVxYWF/wegNzOXgPkEEG0QdXzm70jTnuqy97n6+vpFZuxNRd2RgwaVeIqKjiVNq9SZNyDgTAAxX5xdtnxEwAydyA/gp4aGhldTYWO8fe4wZMgw1rSdaTUhoOt6JYhOJKAGQJ6BvpkBN4CZGjATRIFVbXRd15movrGxUb2A2UBfhqrU1dUNIOZRa9lt65wbovWMPpi7BnMBuEkJHWUvNO31hoaGHw0Zkp5K2g51dZepoXTmvcC8GxHFFKhdpn1ARB8ov2zAB3PmzfsimSbvMHToySDqZaRP1vVaEB1upO6qOgS8ykAjESXtNEdmbq9vbDSV8tmozTvU1o6Epg3rfH4xXwug0GDbZSB6lYDfmDlU39g40WC7lFYbMmRIXp7Npt416lfARgCOBlAa56BtRHTzqras6z9X9ejx5jvvvONbu7+0CYRhQ4bsBE1TqnXTeJxi4FGb3T421kt8x+222yBkt78LYHMT4yy0Mx82a968H0y0gRIj0PVWM21UXVswuOHsL774w0y7OAWCC8xvM5G6kHYg4N8T28yMDeBjEK0oLCo6JhOnuanjZ0Oadh2YK6Fpu0KJnMTK3yCaw8CkhoaGOYl1FX/rYUOHPo6Vc6OeYpsB2BKA0ReO2YGVKFDX97cgYjD/roVCD835/POfzXTUORdEN0LTVgoW5l7MPMLEi9LocMreuSD6m4HRDQ0NTUYbJrve0KFD99WIjgWzOuXwsAT7VyJuARH9ksz7adjQoUpwbJugbeltTvR3fUNDv2QOusOQIaPZZtsDzIPjfdf8++Jk1knTXiHmzwqKi+/PxLOvrq7uNDDvTcwOEB2STFar9aV+dDcy4GXgg8bGxn/jU9ImEOrq6o4l5uficpD5LZ3o9MbGxiWx2scrEELMh83LPYEQC5e5vzP/AaKX6hsbLzXXMP7aO9TWPspE+wNQv46S+vJkYDkBrvrGxgHxW2i85YgRI0oDPt9VRHRUV6v+JlZAjA9krKYfzGPq58173Ej1YXV1b4F5EAC1rNlb/ZIx0i5JdRaBaEZ9Q8OJSerPUDeDBw8uLszPHwvgHKwU10m9/kD0BzN/19DYuJ8hg6JU6u4CYauttupVVFj4ATFvCKJEf0CsTdqlfiDpzIc0NjYuSHSujLTfYfvtt2AVSEqkhI7yJ133WzuYx9XPm3eXsjMtAmGHIUO2Z02bbwTMOnWYOxi4oWHevNuNtBeBYIRSYnWY+eoOt/vuhQsXdiTWU/jWI0eOtDudzpL8vLxZ6ktOKsZYo0/mDgIOCjA3zJ8/Xy3RJ6WoT1Dl5eUlgUDgUJvJoLCkGBC9kwATjWloaDD0LdoiL6Am9elin8bG164HkrbUHQaTVldXV0nMK9IwD2qI3wm4pKC4eHq8v1ItMj/mcCVhBWG/jTfOb6qouJ2IzjM3eNy1f/QFAsNSFaOgnn0ej6c3dP2vuC1MsCERXT+3oeG6tAmEYbW1X3YpIdOmM/BAQ2OjOr/cUIlTIHzLRIeZ/d6ZBZ8YDDGLqxLz6wgGL6tfsOCnuNpHaKSCDzVNO4mACwgYmMy+Y/SlghenQNMura+vX5qMcYfX1R2qM98DIKnLqMmwDcA70LQzjcaWWOkFxMwnNcyb93SSOKzRzZAhQ9a3E9WB6EkA6pNC+grzRfXz5t0dT4yIlebHMLAEBYL64Qmb7ShmvtzwmMmp+KuN+eDZ8+Z9k5zuVvay44479gwEAqPMHsWdTBs6RUE6BUJdbe3lRDQhHidUIMXchoarzLQVgWCGVsJ1PygsLj7o448/9ibc08oOtLra2vuI6IxMLb0z8HxI18+eP3++6diStRlYWSAQ8OjcxkbF2VCx2AuIWdePb5g//3lDxhusNGzYsE1Y1ycQoJb8Cww2S2o1Zr6uYd686812arH5MWZ+AgKhK5eDCtpL/QpjOG+Y58NmO6u+vj6+lfG1+hwyZEiRjegyIlJBsOkVpmva0kbAf+Y2Nnae9pnSTwxdOb/vBeAwdsX8rxYR/WduQ4P6rGBqKVEEglnSidU3u8ITbbRhtbWvpjAQx6ijTMy3z503T317TqiIQEgIX6zGP9U3NsYV8Byu47q6umpinsrA7pTsWINYnqz794n1jY2duyWMlu4kENSODQbU7gLDO9WMcjRZ70stFDrcbKBvuDF2GDr0MAbu64rvMWlGEqszzwwyH7lqt2BqBcLQoe8B2CsO8ye2u1zXx/ONWwRCHLQTaxIgoslzGxouTqSbutrap4gorUFokexlZl/DvHkJ/4IUgZDIFRGzrc7AlIbGxuNj1jRQYdjQoVeoLZZJD0Q0MHaYKgv9weDIL774YrnR5t1FIAwfPnw9PRCYCqKdjLJJZT0dGNfY2HhjImPU1dXVEvMHAKLmpklkDMNtmd+qnzfvwFX1UyIQVIIXt8s1iYAxhg1bVZH5O51odGNj46em2wIYMWTI+kFN+6/JbY4SgxAP7P+1mdX1PXthPN3ssMMOG3IopOYsab8I47FjrTZNdodjwKxZs9rj7cvCAmERMZ8wd968j436ZtEX0I8acOacxsZPjPoRrt7QoUN7a0DU/CqJ9B9PWwKeD+j6GUaDZi06P9FdN/mJofO90tFxWxoDEg1NnWa395szZ87fhiqvW4nqamtPIKLOnDMZL+kQCMNqaw8H0RSTSVIUmzYduKaxsVEFdsVVRCDEhS3hRsx8m9fvv+Grr75SyW4Mly5xoE6Wi2elyfA4cVQMgnly/bx5phNhrRrLwgJhQX1j43ZmmFj4BXRrfWOjilMy9Slyle9dCaqUOM38r7c1J0RlxRzTMG+eoWOZLTw/kS8zEwKhUxy43f+hlUmPLFfqG/+/vSuPk6uo1ufU7Z5kMomYAA+VNSwuEXAmfZcZAnkDKoggKE/E5SFBk6AouKE+ccMFnygKLiAgoILwVMQFgeh7KlGSzNylJyFqEAkSUEEhQkJmksx0d533Oz0942TSM11V93anZ7j1b59zqupU9b3frTrnO6FRGiJnOs1pa9uNoGhPTZAAfhaEIZPqlVviJwhdXV3zZLHIRAvahCKVtKtr4jgnBQhxvBdL93EolV7l9/WtV7Vy5plnWo8+/PAFgHiFqs4Ecgwwdmd6ROwEIuZQMG2/AyHONQ1ESgGCqds19Ij8EsDSyDCivMLvEGePMFnUFwFx/ElTlgAWIwDT/Jo1ortFNrtc5et0ugMEx3EORID7MV4AH7OI8qnZKMNoeWGI5gHiuw0+aEfXFQHOHwns01ls17bPQ8Q47zx+7n0XhhlUJ2qIAA4BjF4dTCC4AwAuGstumThA8ByHj/sW6zipskiv9aPop9p64xRSgDCBB4nuJyE+KqSsnnGAeAQBvAfipBYSvcmPou+rpmnZtv0iC5HXnFkEdRufVHwHie7cWSz2VMtL5ngUaVkLCIBPtN6m2wE/SCpR5aO0pDo2nvUAgegnCMDgbcJG/OU+nLVygo5vx8oS4uuCIPiJrr7rum8VRJcTwL66ugBQJKKLBcDvZ27efM/KTZt2+V8x+H3kkUcOE1IeRogcbM0smdpNArhhGIa1FF3XPQmZmluhEUA3Ip6nIDoqgkQ3SKJfJ0m1jADbe6PoDpVxeI5zDwB0q8hWkfkbEi0rAvx5/vz5G8fXKClnEFjWcSDlITFe1n1+GOZ0x+c5DtP7K63bWNsIsBaIPiqF2NLf35/fsGEDU8hP1HBRLndgCbG8B4sA2cpzdxd5Jo6bNTBw6Mox/DaJAgRn4cIlwrK+peskQjw1CIK7VV8sk9lPAcJu3rmjKOXb+WWXz+e5/kNVHv4RcqKZ2exdBHCM7hqW5Yn6W2fPnqtK9uI5DjMyKhFgjRvPTkI8YNasWQMqKZZdXV2tslC41TBD4kvbBgYurvEHrOquhAFCCYh+TkJcI6V8cGho6OlsNsvH6lkhxDwslQ5Ay2K+kNHjwYnWUAJcGYah1tWJ4RfqlX7tfsSiRYvaikNDzDvwOhPGOEOAgJ22/VlCvNhgr99hDQ4uG8xmn87n87t+jVYxxtweWSHWE8BBun0R0ZeDKPqAgh4fcSsdc9u2vcTSLdYEcH5Byuvz+XySxc74WaRUF8Rz+ANYv1Gx6LS0tT20atWqp2tpV0DdaQhwBRBNXqtmd2OcHvjxXs3rcZN5EeLHAOCaGPTjmMvlyhkgGSEuBAD+D3BNm3/4YcgsqaMtMYDged5+ICUXVnlOrYUY8/sAIb5Hlc1Nxa4xQBgaOiO47z6twjBTgCjpYT8MtcmGPNveAIgvUfH3eBmRyexdq15GRUd4jqP/sCF6zI8iLgKk3VzHWWly5Gv4AoJK6hIT3+gQJXF0/j+Q6GN+FPFL0+hufcQ55TvOWbOWEOKHsFLYyoRauo4AYXQdY3wlPlWU8shahdzGbhjXdV+LRCYFu1b7YWgUQe85jg8Aru7G9cOQKZ6NXpDV+nIc51wBoESxPaK/J6s5uo7zBOqf8mwXAK82CWB1c7lTUAg+9tf537KrrvPDUOtkxgAg7OBie34U3a67j2rJu7bNHBxlBsXRdTcYIICUJ/n5PKcwlltXLneUtKzvVgpk1BrHyO87CPGK/v5+Tmec7HhE1V5ZzhQgQKHwOl1WwOkKENiPnm3/AhBP1HL+cOW0m4IoOqeWnmfbb6wEstYSHfu7lABHh2H4Bx2lsbKe4/CVRs2v7LE6MQECB9zqAJpngOiDfhRNejRvOn9TvUYAhPK+cxwO2NLmTQEhDlRlheQTpVKh8ElE1Oa6kADPV6kJM8GL+UAL4HbSrGhblHLffD6fGO3zVAIInucdDVLytbVWoTnV4n4T/R86XfdSIvovzbTX20UmwzEjylWBDd6/kQRY1qiaELFPEHK53PMzlvVVINIqH0oAPy8Ui29fu3btY6YPrWp6KUDYxStGJwhsoVwsxLKM0hZVInoN/hg8rO8R4rtjHK1Be3v7c2dkszWPG8ftretaBwY+MPZuTmXPVk4QUoCg4qyKTKfrfpiIPq+hMiyqARA8zzsApHxU9Uh+ZCymLIdj5+K67jlIxCdDOu27fhieraMwmeyUAgiOczMAvFnrRU20XgAs64miII7PPMfhK1nlksp8hw+Iy3XiYQyegzsQ4D97w/BHceamqhsbILiuewoSMeWpztXCNkK0dWsfqEwqBQjJAASuPFgcGmICEA5c1Gq1AAJHJAsAfkBrNUJcEgRBrHzhSloRBx2q3OuOjG97plg8YrUmmE0BAqjEIOyyBwwBnAlA0C6GM1gozI1bpIc/qLJCXEXD8RbKrdZ/StkQAEwxgMCxabrVLr/vh+EbdXxSTdZxnMUCQI9jg+g8ndM/A4DAQ/0DCPEq1ROzOH6IBRAqrIX8lTlLZxBxjulq9ZMChGQAAlvxHIdZ6hjBa7WilMfl8/lVEyl5rnsvEOnd4yJeu62//8IkrqO8XO5EGCbTUm8aX6gjRlOA0DiAQIiLgyDgNLaazXWc36NmVgERvePg+fOvHx8BX7OzKgKe43BcCgeHKbdnI0BwXfdUlPLrgKgTMLiZpFwS5PN3KTt3EkHtF3hjAAKPeJsfhjof5UbuMAYIRYCHMkJs1OmVj2AyAKesUUjb0bE7VrbydcrxES/WsPGHNAZhd2+5rnsmEnHVPD3aYaK8H0X2hADBcbjAyUKN9WHRr/phqH2aUa2PTtt+BSH+n1b/KUBYCwDtWj4DfYDQ3d09e/vAQA8CHKnTF985B4rFp7Qf+nwXQfTK3ihiOtzYzQQgHBSGmdsA9IN6q4x2qpwgeI7DJ5gcsa/eEDf6QXCEusLkkp7jcHxcVtUeIl544MEHX60KJE324tixEEAvIJ6TzWYfj8P6OtH8jAACEX2Uiynp3M9wzXMgepcfRXxkVLeWAoRdXGscg8BWyidElnU1IOoSyUzK1OfpAwROJeMCNiYpabvtNROAIEqlI3SLsqQnCPoAoZxq9vDDSw3y0R/3w/AFKg8Wk4dykgChEgDHxZiUXzxQKtl+X18ilQNTgKCyS4ZlXMf5FWpwdDATYUnK81QzajzHYcbh2NchRPQ1EKIXETf7vj+aQKA+0+qSpgBhCyLy8Qan39RsfHIgiM7pjaIVNYVjCpgCBFEqvVb3BTCdsxhGlsFzHGY5fK/mskwIELyFC3NgWbcBwHwNmw9LgHPDmJz7I/25rnscEyzpxM1IgOVhGDJDqHJLAYI+QGDnmgA41lM5hj/2qKPmFmbOVI4yryz2JkI8MwiCSHnxJxF0XXcpEl0GAPNU7RHRjUEUMZ9J7DadAQIBrAnCcFFsJ1UMuLb9PkT8soa9Z4SUx/bk879T0UmaapkAHheI35NSPoOWdYvv+w+qjGMiGSOAoNshITpJ/blq9Z0ChF08FOsEgS0lDhAch4mR+KpA/esJYAAQfw9ESaXDcmQy15HXSae71w9DLYbQFCA0H0BwbZvTG3fJ9a71TOEaMUD0ICBORmerYGZU5N8qjKXK/wECCIMw1OZQqDaoqQAQKrw6Vxp8XTP4M06DruKv/XSLyKGUud58vk9xQzAfzAUAwHNNsvGz8gEA2EJEvwii6FIT43UHCFY2u9+aNWueMBmciU4KEJoeIHDxmeUma7uHdaQfhsw2ptxSgNB8AMFzHK66p3QVobzQjRE0ovKdqgCh07YXESLXGDikMe5NrhdNgABdjnOMBFid3Ah2s8SxKwwYbh4sFD6sk4lTd4AAAPcWpTxL9U4mrpNSgJAChLh7aCJ9lSPssbopKMrE7QAAE/FJREFUQGhKgPB3AOCvwqnWnlUAIQbT5R5fV12AwAPudJy3SICvoyYhlOFkh0pEuZaWlm1r1qx5ZDIbjQAIAIh3oxDv6u3t3WQ4IWW1FCCkAEF5s2gKpgCh/lkM5YelSZaJYgyC5zgpQJgCVMvPNoBQ3veuu5S4MmhjQAJ3+btyJVLLumciToXGAAQArnR2o5XNfqre1w0pQEgBguZ7X1k8BQgpQFDeLMkLpicIyfu0LhZNThBGBuK67puR6Ja6DKy60RICrNhZKJxd7eqhUQCBh7aNy6OWiK5VqYBm6qAUIKQAwXTv1NJLAUIKEGrtkTr+ngKEOjo3SdNxAEL5JCGX80oAnhCCCbUa0ghgLZVKXw37+nahATcFCFxZTKm06LjZcbGd48Mw/G29Zp0ChBQg1GtvpQAhBQj12lsKdlOAoOCkZhCJCxAqc0Avl1vE5d11WT9j+GCnBPhCGIafHLFhBhCkPImEuNikdC53LAEWhWG4JsZEJlQ1BAh/hFLpLL+vb73OmFIehAm9NTEPguNMySwGItocRNG+OvsjDVJMgxR19ksN2RQgJOjMeppKCCCMDpFrQiDAlQgwGwASY4ms6gOi+xFgWW8UlbMqjAECl3v2XPdWIHqTibMJ8Q1BEDBhTqLNCCAgPlKSclkURVr0uylAeBYBBIAfBGF4ls5mTQFCUwKExwHgeTrruAdkOS2NT2lHGjOJRro8HBONeyrwIDiO8ypBdBsg8ktxqjTJ37+CyO2JIqYmT7S5rvtCJPoAAQgEOBMA9kq0g4oxBLhTFIvvXrN27SOxAEKl4t/lJnntBLCFJ+tH0Y1JTvK4jo59hzKZe0CvGMszEuDjYRhyaV7llgIEA4DgutcA0XnKTmZBokcA8Qog2qGll6CwAFinWz42BQhNCBBs+8eA+FrNrfEwAHwbiDgDou6NAEqIyC+b4UZUJCmfCPr69AqMTTDSqQAQvPb2IyCbvQY0aI6HXUWPIoARKVDchSUhJBKVCPGOOCXpFcaBnY7zBiLaCxCPIKL3I6ISq7GC7bIIAiw/8JBDbowFENhQpTwr0/EuUe18jNyfQMp3+Pk8v9ATaWUu902bQgTo0DBIRHRlEEXv19CB6Q4QOjo69s1mMpyb+wYdvwDAxFcMnvd6kPIqAGA2ObVG9BgAnO9H0U/VFJpDKgUIzQcQ2tvbD5mRzfILX6dtlwCvTorqW6fjeshOBYDQ3d2d2bF9++eAiGtW6LQH/DDUKdSnY7vpZLsXLJg90NZ2eIYISwDXIqKTyCCJHrNaWjpiAwQeTC6Xy2aE+Lku2qtM5DOtbW2fW7lyJadCJtIMigFxv9rVAqc7QDAt9wwAk96XNmp9EtlMMYykAKH5AAIv554u1hRjSyWi6tn22wDxBh1jKOX5M+fM+ebKlSuLOnpxZJuhmmOc8e8pXcdxXi4A+LSJEwmMTxZEJnNAIgCh/Kez7bMB8Trt0sCsPFxD+/rh+MX4rVEvoBQgVF8rCdARhuG6iVbSaH0QbyyWShfk8/mk+PDjb7QaFlKAMH0AAj+jDpo//wbVMr5131wxOnAWLjxDWNbtOiaI6Ir+7ds/sWHDhn4dvTiyRgAB4K+iVDpet/BenHE2q667cOEJaFkfAYBXGI2RaEViAKEMElz3CwZHQuWx8z1KEEV8VRG7Gb2AAL7Z2tZ2oc5JxnQGCMcee+zcws6dVwLiW3UXpFY6oOH6bJIAS8Mw/JXuePaUfAoQmhQg2DYXXjpcc19sLUp5cD6f36qp13TibkfHyzCTmRDATzDgP4pM5hU9PT1cy6IhjT86CfFLCKCVPQQA3/PD0Ch4viETa3AnruN8EwHOBQCtWjI8zEQBAht0XfdDlVKm2m4goguCKPq6tuI4BcMX0MOEuDQIgl+r9j+dAULnwoUvIcvaoOqLsXK1AEKnbZ9GiPrxBESrRDb7xkY+pEzmP6KTAoTmBAiu674OiX6ku7YIcGtvGL5FV6/Z5E2fW6JUOqKRX+a5XG6vjBA/AYBuTR9uQqLze6NohabetBTnktKzZ836NCJ+WHeCiQOEcr31GTOuBsQ36g6Gg9ta29q6dL7iq/VhCBCAEJcEQfAd1XGb/tGsYvEQTiFR7YflOl33EiIaJbBQ1DUu9+w5zp9Mcm6pVFoc9PXdW2t8JvfAbJMA7gvCsL2W/Wb4PQUIzQkQPM87AKT8i9EeQbzbD4JTjHSbRKmrq6tVFovaV3WNBgjsLs9x7gaAkw1c93dBdLpu5pFBP1NCxcvlTgQhtLNgEgcI5UW17dcD4v8AQEbXewRwy6y2tiVxgmE8274GEPVS6YYH+gBa1qtUi0pNR4Bw+OGHz9h77ty/AsA+umvH8q1tbVmVtXNtewsimubx7pi3zz5zV6xYwSVMx+aLmwx5vA52d3fPiAtSy6DOcc4gAE6d3V9jYM/wNZ0fRRzP0zTNcxzO69YFZlf6Yfg+3UnUs1gTj4Uzr1oymZsQ8TW6YyvLI/5wW3//WzZs2MD8BEnvPzj55JNnrFixYtBobApKpgABEDf6QRCbqIczzZ588kl+TvAcJ/Wf53lHg5S/MS1gZGWz+w0ODj5dD3p/Ds7P5/PMWWEcO+fkctcJIZZwjIeVzV6ydevW0oYNG/i5lmhzXfc4JOJT27k6husCECoPx3cSwH8bkjl8qXVg4JKV5gExPC+zRSN6qx9FXIe85h9/ugEE27YPtQB+AIg5nU00KkuUP2j+fE8xkMt8jYYf0hupVLq4BNB36KGHblLss+q0+IH16EMPvZQymb1QynmAeL0fhrr3nrvZTgFCc54g8EJ5tn06IPI1g1mUN5EPAJeTEPkgCHTTJnfZKwsWLJjd1tZ2OCLOEVJaJMRX5j31lLti48a6gARjgMAPRcRjgiDoMXk+8MfHvHnzXJDyFEQ8P1Msvnj12rWcwjxp88xiRkZtSqLbAfGyTCbzUE9Pz1O1+pvs946Ojhdks9nDyo8govcS4reCILjT1Ob4k1QC+A0gflwIMZQdHPzzvWvXPmlqe4wedtr2a0yudesGEMp/QsdhxMIoXatuAwEMCClf3pvP85/QqJkeYVc6uwgB/tIbhj+YrPPpAhByudzzLb4SQjzdlD67/IeRslNjzdCz7VsAMV4wEdEqQLwLAbajlPf05PO/U9gwmMvljswKcawkmimEaCEpl44NXCPEFwVBwNcsxi0FCE0MEDxvAUjJpzSLjBeYFYlWEsAdCLDVKpV+pXh1iI7jnCCIjiKGuoj7E8AbEODAylgeJymXBfn8XbHGNoFyHIAAADv4hKsEsCZSYAt0XXc+SHkCADwHEfnr9eMjw8oUi/urAITOXO4cEmKXIkIGfnkaAH5IRPcLgId6o+gOFRvlOAjE06hyooqIxwLAGWN0e/0wPEblg7Jaf5O8p7YBwE+JqA8RB/0wvFplvNVkOl33/SRlJyAy+6JWqy9A8LxOkJKjzmdpjWpY+JetbW0nqxxXV7PtOs4vEeDlBv2WVQjgSQEwKfUyEWVNnN6oGARE7Aeimn8EItoHEE809VVF79uEeJEOg5jneTmScg0CtMTsm9X5xChCgI21bBEiAhF/BfCRefW+ie7yo+jUWrYm+z0FCM0LEHjdPNteToiXIcBz46xzWZf/awAhEjGV86Stsv9sAOBMimofTyUk+kZvFF1Qy5bJ73w0bgnxXQMCtJHuikB0HyI+UKt/CbA/AvBc28bLqgIE1nNd9yYkOrtWf4q//w35S12h0XD9g8WTXXH4YcinUDVPnKt1p/ghWwCiHyLiv/og+msJMS9KpT8OEW1taWlpo2JxvkBsB8QFY/sigDcrTHU3ESK6rK4AgXvsWrjwcGlZD5oMEAAe9MPwhSa6nuftB1I2hBpVd3yNAgi64zKVJyIJRO8K8nmmRlVufNf61ObNHFn7KWWlBgkyQAzCUJ3tscq4PNv+D0Dkkq1pDILGutU7BmFkKBWqeI6S5y/cpmoIcH1vGC6r16A8234lIP5vveyr2NUBCI7jvFQA/F7FbqNlTAFCR0fHgpZM5g+G4+U4BQalOwCRAZtFADNwGIiZfJDvDhAQD607QOBePcfh8s7HmTiCEBcHQVAzKr6KbfRclwO+mq7YxzQDCBykc60fhu8yWV/W6bTtb9BwUKnWVZRpfyp6KUDY1UvTKUhx/Pp7jsMxBIeo7ItGydQbIHTa9iJC5K9o7dz4pHwgAT4ShuHnVe11Og5fV9/GL0JVnUbImQIEz7Z9QHQbMUaDPphe/LDGAIThtCKmYn6pwUD/jJZ1am9v7/26uo7jOAIg0NWrt/x0AggE8NsgDI+PE8nr5XLHA+K3APHgevte1X4KEJ5FAGG4MBA/J+JfNahusFpyRDf6UbTU9Oi6lvlK1VsuvW6SQljLvOrvJT8MdTLdLDeXuwiF+ERSX8mqA51UTojn+b7/D11bnm3fB4hH6+o1Qh6JTuc4jYYABJ6Qa9tvQsRbTL4SmaBkZlvb23VTz8r5zqXSDQncrye6JtMIIBQR4IzeMPxZXAd1Og5nvTBJlllUedwB7K7/lDU4+JI169c/YWo6vWJo7hiEsevqOc5FAPAxw6wr0y0ysR7RPQUpl/f19dWMqTHtvNNxLiQAZq/dY/+5WqRq4+fW2d5+iMxmL63ET+iAC1M31dQjopuDKNJmnG1igLAahFju+/6GhgEERqwIcBUOZzXoNg4qeafJi4hraAPRdXGi83UHW0t+mgAELmv6piAIbqs1X9XfXdc9E4k4WteIg0G1HxU5BBgkgEv9MPyMinw1mRQgTB2A0N3dPXNHf/9bAZErur7IdM0T1NtORO8MouimBG3uYuqYXO6wohA37Mlnoy5A4AnkcrnDMkIwo2VTxC5xDFYQRdpXNU0KENZBqXSO39e3nn3dMIDAnZWPkoXgokyH6m56AnjckvIkxTS2sea5dvZSArhMlyRCd4yq8lMdICDAYyWAt4dhyMxcRtG7E/mKAR0CvJ+L46j6s25yMTMZUoAwdQBC5cWTFUI8TwAwyVu89McENiUCnN8bht9IwNSEJmzbfpHFDHtEe+R6zwQg8GQY0G3fvt1BIo5v2+NNdx6O45yFAF8zqDNRz7k+XSJaHEURB06Wn+sNBQhlkGDIjVD2ihAn+b5vFHnr2fZ7mYACAObV08MqtqcwQOCAxJszzzxz4eoHHuA83bo117a/CohnJ5KCZj7KFX4YvtpUPQUIUwsgjF3nCjkPn2TtsbiERgCEyjOZ+SC4mE/Dj+wLpVJXX19fr+l/rFLXhUtXMytr1tROXD1dgMDPNxTi3CYKon/KD8O9x/uh4QCBX/Oe4zxTLS9WZZH++fTTMzcaMoy5L37x3jhnDt+Xd6n0VS+ZKQoQfg2ID/pB8I56+WW8Xffoo+fDjBlXIwCnumqfOiUwzhQgVJw4nbMYJton7ste9kJsaeEv+JcAwPMT2E9aJhoFEMogIZe7CpgEqNFBc0S+H0WdWo7ZXZjfY5cCEZMBccB0w1umpeU5q1ev1vpocl33VC4qVTnZjusDozkTwENI9ECR6Jx8Pr+5GQACnyLwl/ynTWZERJcGUcTBREatUqhlOQCcBgAvMzKiqcT32ZLoW4hYps0cLBS+vG7dui06ZlzXPQGJuhHgGIpBAKXTZ1kW8R4E6Nm+c+fn1q9fP6CtH1+BGRdfAYiLgei0RjzAiGtyMOU00YN+FN1sOoX0BGHqniCMrHmFBvnVAuBIAPggAMw03Q8aen0AcJcgurOBxYbQdd2jgejzQHQiItY3cJFoPQFwtcV/BlH0RQ3fTChaYbblYFPOlhvLdpiE+Wo2tgHRrYD4hAS4OgxDI96dSkbJMiISAnE56Ze31p8f0SOAeJMA+E1PGDKZYdXGD1/l8sYjFkiIDwVBEOmP6l8aJv0ioiSiUuvs2afrZjSMH2uXbXdIgIMAkYPQjoozl/G6HC8BRF9HgBESjEJmxox7dRFmtTGViaeEGEkXbeVoUyL6d0w4EpkA7kSi60mI+4MgYKKrRGMNTPzdmcstJMQDEXEmF/VKMIeb57YKiL7E4xIAjyfxYHYcZ7EgerdO0CUibiGi6/0o4ip2TdM8x7kOiJj5T6fd7kfRVToKLFtZ58t19fwoqivhkWfbfN3E7KkeEX0AEZNgAAUOckPEGwjxbpSSXxObgiC4T3f+ScgzNbIgOlISLTIpDzzZGAjgUZDyPcwIiER/mTlnznpTptzJ+unq6tpfFgrM3sjt8rEU6gn4iIOzz0Ypt5MQO7PZ7JoknuuVcTFIOx6lnEPDp6afQcTkOB+IHiOAr+DwB9Dm3ihaXcsf2N3ern/H9tzn9sddWJN+Rz65161btzWpF5bruntnC4XyIhQs6yxE5JLKqlUGmcHqVol4bUuxuGnE2dTaWtyyZcuWelTlGreg2N7evlcb4i7MWYOW9UJrmHhIveQ20f0M/LKFAn+9wE4hBvL5PPu5GRvXUnjeTCnLxEqFbHYhSHklIpaLqCi0v5OUn8JM5s7M0FC5qBe2te1YtWoV87Un1pjSlvO155RKygRQ2yyLduzYsaMBe0drnsw6mB0Y0IrUHmxtHezp6dmh1dFwAFoGtmzRJjhbqXkqpzuuEXkOkNu2bdvckf1XQjyRLItz8+cr2STaSACfsLLZ34qdO8vAe1uptHUPndBVHTLPsbB1azlea9Cy5lmITPvMqXxqJyiInHl2iVUojAJdAVBIqPiQkptZqKOjY99ZldiEIuI+YFl8CsT1X5T2MgH8WEj5WavCyrtTCMrn88x5YFYMUHHkCxYsaGltbd179BlnWa/B4Rg6dVZWonvAst6bGRoqXx2YvJf+H2r0YRq70KjdAAAAAElFTkSuQmCC;" vertex="1" parent="1">
                    <mxGeometry x="380" y="70" width="141.81" height="72" as="geometry"/>
                </mxCell>
                <mxCell id="7" value="" style="shape=image;verticalLabelPosition=bottom;labelBackgroundColor=#ffffff;verticalAlign=top;aspect=fixed;imageAspect=0;image=data:image/png,iVBORw0KGgoAAAANSUhEUgAAAggAAAEICAYAAAA6FAz+AAAAAXNSR0IArs4c6QAAIABJREFUeF7snXWclNX3xz/nmdnZ7iUFFWxUDJZFxMDun4HdLdjN18JERRELuxMUE/NrYVC7C4qF3Si5u7MxPfOc3+sui19i4nkmn5k99yX/uDfOed8nPnOfc88lSBECQiAnCTBzHwAEYF8AEwFURnD0MQDjuv7mJCJ3TgIRp4SAEDBFQD08pAgBIZAjBJg5H8BgAH0BvATAbtK1+wG8B2A6EbHJtlJdCAiBHCIgAiGHJlNc6d4EmHlXAAcD2A/A5gnSGA/gHwCPEZEvwb6kuRAQAllIQARCFk6amCwEVifAzPsDGANg065/yQLUBqAewBT1j4i8yepY+hECQsD6BEQgWH+OxEIhEJYAM48AcDeAzQCUpBCTB4CKS7iAiJ5L4TjStRAQAhYiIALBQpMhpgiBWASYuTeAAgANAHrEqp+Cv68AcD2AVwEsJaJgCsaQLoWAELAAAREIFpgEMUEIxCLAzP0BDOvabbB1rPpr/Z1/WBTAohXBde53m0bBkYMLzAYyqu6XALgJwO9E9JZJe6S6EBACWUBABEIWTJKY2L0JMPOtAAYBOMgsiTcb3K5flwSL5v7gw4+LAuvc76TBf8JuJY7yIk0/YFhRoKZUU7sgzJR2AGrnwywiesNMQ6krBISAtQmIQLD2/Ih13ZgAM6vcBdsC2MMshmc+crXM+d5b8f1fgUCbW3fEau+wE2/c167vvGWh75hdi/JLCjVbrDZr/f0vAD8COJ2IfjfZVqoLASFgQQIiECw4KWJS9yXAzOqeHAXgUQDFZvMYfLjAGxj/gpPdXj0vqHcmSTJVbBpxgQO0y1YFi248obKfqcYrK3cAcBGRipWQIgSEQBYTMP0AyWJfxXQhYEkCzKxiAFRiI5X5cK5ZI5c6Q/D5GYfetIyJzIuCSOPZNAocumOR97iRxSW9Km3ksJt+XDwF4GYAf0guBbOzKvWFQOYJmL7jM2+yWCAEcoNAlzBQWQ+HA7gIwEZmPPunOYSvfvPjkXfb8cey1G0mIFDgnINK7H2q7LTP9oVmTFxV90oAv3RlZ5RcCvEQlDZCIAMERCBkALoMKQSYWZ2PcAAAlctgO5NEeNKrrfT70iBmf5e+JIdEwDG7FmPbgfnYfRu109JUUQrmcQCzAbxCRCq4UYoQEAIWJiACwcKTI6blHgFmVjsRRgPYCsD6ZjwM6ghOfLlV+/mfgLbgV7+ZpkmtW1NmQ/8eNlx7bAX61ZjeIanyKKjVhEeJSMVZSBECQsCiBEQgWHRixKzcIsDM6wFoBFDTFXho+N4Lhlh/8TO3574324oDQYZukSOUVEyCww7MuLVPPLEPakVBZWe8nogm5dZsizdCIDcIGH5I5Ya74oUQSB8BZu7Vle3wYwDVZkb2+llf1hqi+T/728ZPdZabaZuJuntsUxg8de8S6t/DjqJ8MrtFshXAFQA+IaKFmbBfxhQCQmBdAiIQ5KoQAkkmwMxFAI4EcJjZ5Eb+IOvzfvL7P//Zh9fmeuzOjpDpNfwku2Oqu8N3KvJsvaGjcKdBBYHyYi3PVGNAfTc5S50iSUTqyGkpQkAIZJCACIQMwpehc48AM6ttfWq74slmvXvqw47WP5YGSz/9xutzuvS4tguYHTMV9TUCRg4u9A8e4OD9awupqlSLmahpLTtU0qXXVVAjEX2RChulTyEgBGITEIEQm5HUEAJRCTCzBuDMLlGwPQBTv5xfnuUOvFnvsv3wdzDkD7KptlaemkKHFlqv2kab9bOtuP74qp5x2PoTgGYi2iGOttJECAiBBAmIQEgQoDTv3gSYWeUx+ByAEgmm7ieVx+CQG5eCGZ3/crnYNPCILfNbJ51eXRGHnyEAHwDYj4hynFQcdKSJEEgRAVMPtBTZIN0KgawhwNz5C1+lIFYnKj4JoNKM8StaQ2hq13HWvSvQ4e2O7zoKnXNgKe24Rb62Wb+4FkuuBvAOgG8lO6OZK0/qCgHzBEQgmGcmLbopAWbeCcCOAI4CoD4lGC5uH/N/53toxtcezF6YvuRGhg3MQMWrjqpATbmGnbc0nXRJWauEgtrx8BERqV0QUoSAEEgyAREISQYq3eUeAWY+AsBuAEYC2MKMh8EQgvdMb7WvaNf5vfkeud/Wgtej3IadtszHocOLMWh90ysKy5VAAPBfAFOISNI4m7k4pa4QiEFAHlhyiQiBCASYWQXH3QVgQFc+A8P3iy/AwWc/6tDf/9Kb99viAIV0wRyNQN8qG0qLNDx9SU3IppnOo9AMYBGAt4lI5VOQIgSEQBIIGH7gJWEs6UIIWJ5A144EdV+YPv1oVbDhG41u543PO+MJxrM8n3QYuM1AR+ies6pCRfmaQ53/YLKoVYRxACYRkQpulCIEhECcBMzffnEOJM2EgJUJMLPKVrg5gFu7PiUYNtfjZ31RU0if+52348G328t8gc5tj1ISJHD0riW+vbYtcGzcNy9UXEBmE0YpcXBwV9IlyaWQ4FxI8+5JQARC95x38Xo1Asx8bpc4OMcsmOn1bs+vi4O26fXuYJtbVxkUpSSZwKgRxa7BGzryazfLD/Yq18xGNKoARhXQWE9E6iwMKUJACBgkIALBICipllsEmFmdFzAGwJB4sh6+8Kk79N1fPtu78z3eYAhmX1q5BTMN3hTkUWjrAY7g5v3svtP3KSsuLjAdp7AAgPp3ARG1pcFkGUIIZD0BEQhZP4XigBkCzKyu+X0ATATQH0CZmfZf/OLHrdOcWNKss8unZ9398/zlPWBTuZDVecv/bcf7X3jMuJ/xujaNgv162Gx9Kuztk8+uMjV3XcZ/rz47ANhbYhQyPp1igMUJZN0DzuI8xTwLEugSBeo8AJX1sMGsiauOWB5x6WKzTS1T324jPH5hzTpbCU+/ewUW/KrOSMrOctIeJThzv1Koo6fjCGi8HcBNADqISPaZZOclIFankIAIhBTCla4zT4CZqwAcAOA/AAaZsajNzfzL4gDd/1Yb1MpBNpexh5fjiJ2Lw7ow9MJ/sj7V822nVqFnhYatNjB7LlQnktMAfC0xCtl8hYvtqSAgAiEVVKVPSxBg5ou6EhudYcagQAjBaZ912H9dHNJfm+vK+h0JRBS84ohyHDaiKOxOgFwQCGp+i/IJo/cvw1Yb5mHwhqaFQguAsQBmENHPZq4XqSsEcpWACIRcndlu7hcz3wHgYjMYPD4OTvmkQ/t+UZA/+tKjghhzohTla65rjqngvbYrKAnnUK4IhFW+bdTHjk365uHSUeXBimLNzPZIFZAxD8A5RPR1Tky+OCEEEiAgAiEBeNLUmgS6xIHaumjoZ2RIZ55e7+548gNXSVNrCN5AZyBjzhRNg+/qoyr4/3YoCrvbItcEwqqJ61tt55oyDfedXR0sdJCZPM4qK+NWcsZDztwC4kicBHLqQRgnA2mWIwSYWf1avBzA+FguBUPMviDw8mcdf97zRvsGsepn+99zPQYh1vwcMrzYf9Z+JbaKEk3LsxkOZywjovZYfcvfhUCuEhCBkKsz28386kqRfCqAR6K5HtJZRe2H5nzvc039xGX3+rlbJDfq7gJh1TVx1M7FLbtvW1CxQU+7v6bMlh/jNvlVxbAQUXZHqHazZ4G4mzwCIhCSx1J6yiABZi4EoILL+kYyo7lD97w8y13w8DttfmbEejlk0JvkDy0C4X9MbTboO26e33HSniWl2wzMB0H9F7aoLIwqHuG55M+I9CgErE9ABIL150gsNECAmV8FcEikqs/P6MDH3/j8n//sMxSXYGDIrKoSSSB880eg45RJy0s4q7xJjrEb9rbzDpvld5x7YFlJQeRjof4CcC4RTU/OqNKLEMgeAiIQsmeuxNIoBJjVWYrhyyuz3bjz1VZ4/N3xNbiSyaidipwX/F95UVE+rSGQLniouWXWQm9ld724bBr0DXvZm1/4T8+aKAzGEtFt3ZWR+N19CYhA6L5znzOeM/PCrnwH6/j09e9+/5jJTT5vgEtzxuE4HOlTZXdOHlNVtEFP+xoC4cQ7lmPhn4E4esytJjefVLl47+0L+0TwSn1qOJCIZuaW1+KNEIhOQASCXCFZTYCZewCYDWDjtR0J6cCzMzr43ultcp0D+lMX96AtN8hbg4UIhJVXTVWphntGV2PzfhF3Q+5FRB9k9c0ixgsBkwTkwWkSmFS3FgFmvgzAOADrJAHq8DKPHLtYrvGuKXvy4pp1UhGLQPjf9bzb4ALcfprKzB22TAZwKRH5rHUHiDVCIHUE5OGZOrbScxoIMPMzAI4PN9T5DzXz7IVeucZFIBi6EtfvYfOPO7YytO1Ah9oRs3ZRwqCXJE8yhFIq5QgBeXjmyER2VzeiCYTaC9SpvlIUga02yPPefHJVXt8q2xoppE+8Yzkv/DMgzwFAnQbJ5x1UhhP3KInEo5KInHJFCYHuQkAeDN1lpnPQT2ZWxzerxEh16/zcC7A+4tLFWX/QUjKmrcBBGHtEOQ6qC58Tar9xS7G8NZSMobK+j3MOLMMpe4U9skL5tgER/Zn1TooDQsAgAREIBkFJNesRYOYLAdwZzrIH3mprf+y9jm69c2EVl4OGFeHaYyuiTqCstqzEc/hOxcHzDirTigsonLj8kIj2tN6dIBYJgdQQEIGQGq7SaxoIRBMIh41fhj+XBdNghfWGyHdQ8KC6Iq2mTOt8yW26Xh522SrsOU3/Gv/of1ceOeDxw/tWg0tb0aZ3y4RS5UXkn3RmtW2bAY6wp3kSGT7HwXoXhlgkBEwSEIFgEphUtwaBrrMXLgIwMZxF3UkgaETB20+rtOfZV97OeXbog/o7qLjA/MssGOLgwr8C1OHhzhfkMmew/dkZLvy+NNhtVmMmj6nGDpuHz8QtAsEa979YkR4CIhDSw1lGSTIBZq4F8C6A6rW79gbYc9Qty/P/bgrmbAyCw06BE/YocR6za7HKA4HyYi3igQKJoNd1ZrePEdRBKq/EftcsCeoMdWpmzpZoAgHAcCKam7POi2NCYDUCIhDkcshKAsy8E4DPwhl/zTPO4Dvz3OoXcM5c3/l5xBXFGoryteCzl9Xk5a+Z7yjtc3j36234YIEHi5tzL7jx4B0Km8ceUVHhsIeNQ/iZiDZJO3AZUAhkgEDOPEAzwE6GzCCBaALh6qdb8O58TwatS+7Qe2xbiC365fmP3rWYCxxkqVMor3raGWppD9H8n/2hkM4R0xAmkQirhxanWPx9dEtvlBWFXYASgZDEyZSurE1ABIK150esC0OAufP7+JUAbggHKFUCoSifcNo+a36Kf+Td9navPzXnPBy6YxH61dhx0h4Rt91Z4vpo6dBD73/uCb41z23/9o+Aeqsm/bmyfg87Dh5epDpmjcAhhvbH0iCm17tTwkAEQkqwSqdZRiDpN3KW+S/mZiEBZlYh+YvCxR98+Zvfc8OUFu2PpaGk/9J+5PwabLfRmsH9X/3m9zf+6HM88PbKXQDJKD3KNfcJe5QEDxxaVBbhV2wyhkl6H78vDfDyVp1GT25iouSJhOICwsPn1WCztc5JaHXpUJ86UiESPri5d6iiWAu3k0FN9FVEdG/SAUqHQsBiBEQgWGxCxJzYBJhZpcIN+9NxyicunvRKGxidK9FJLfPu7hu2v2AIeODtNjz1QUfC4/WttvPUsT2gYgxsqYk7TNjGWB10eHR8/UcA5z3QFKuqob9/MqEPlEgIVx57rx0PvJU8cbZqjLJCcn50a59IySOmEtExhoyXSkIgiwkk/SGaxSzE9CwhwMw1AJaHM/e5GR2487W2pHsyfPP85feOqe7cMRCp3DTVyW/Uuzuj/c2WnhU2PHNJD3d1mRY+3aHZDi1Q/61GD6sX+OKmIAXiiGWsKbPh6UtqoNhEKqkSCGq8SIIQwAtEdLQFEIsJQiClBEQgpBSvdJ4KAsx8F4AL1u7bH2D9kf+2h554vyPpwXLVZVrzf2/sHfGoP2VLSOfgVU+3BD74whvusJ+wKDSi0Kb98vj64yrsG/VJ7u5BncE//RNs2biPrdymUeS3rHoZ/ujv2Hx9u62kQDNsu5G5ZYZ+z/Q2euajDlPPmgG97Z3ZH7faIHq+pgwJhPcAnEhES40wkDpCIFsJmLpps9VJsTu3CDAzh/Po58XB0KWPNQcXLQ8mPf5AjffZ7X28hQ6KmpKwzaO7J77cFni70V0ei3ppocan7F3qHb5Fvn2TPvaERY3Xz4H/fu5p+2VxoDM3hK6T/vNi/4rJY6qr7DaKqj7OuGfFkpoyrbRHua14pd2ECw4u020akpJLQn1+ufeNNjVvMZ856/e0Y9wxFdh2YHRx8PvSIN84xclf/uZPio1rz9ek06vcu2xdEG5FpwXAhUT0dKw5lr8LgWwmEPNmzWbnxPbcJBBJIHz+sx9n3rsiZU4P37wgeM/oSlusbHqtLt379IcufurD9qi/xp+6uAZb9M/TNS3sfnvDftz2Umvop78DtkAI+m9LA36XtzOIs7Ns0jcPU8ZG/TLSWe+Waa3NL890rbFCss1Ah9oxQAcNK3bvX1uQb7dFX4WIZrCuA+/M9/jumd7qa2rTyyLVVTtFHr+oBhv3ia6X3D7WL3qkuXX+Tz4VJ5CS59jm/fKCz17WI5KwupyIbjc8SVJRCGQhgZTcWFnIQUzOEgLMncGHYb/yp1ogqIF7lNtclx1e5t1tcOE6GRxXRxjSGfe/1R4xcPGdG3qpvuKmHgxx6MWZbtd9b7SVBYIMPeyainGB8Poc95Ibpzp7hzPIpgF2W2fQJD69rU/cNqt1nyUtobZrnmmxLfjV37VSsWZ3syb26QzQjFVGXLoYvkDnSlLsyrE6i/D3vtU2TB/XK1JrEQhxcpVm2UMgZTdX9iAQS7OJADOr7Ikqi+IaRb0gp9d7/DdNaUnLIUOXjSpH7Sb5iBU3cMuLrVjwqw8MYmd7SAfBNvG0KgweYN5Mt4+Dy1tD2vkPNv39d1Oov5F5M7qC8P2iAI6/PWzc5zrD7LN9IU7duxT9e9jg6Dr/wYgtq+oEghy4+JFmW/0PPk3FGqhCRKG7z6rWelVoEZ9JLR06XvzMtfjpD101voCe8CeZWDb3rrLxK1f1CjnsYVNLv9D1mWFJrH7k70IgWwmIQMjWmeumdjPzNwC2XNt9j5+xy+WLfcxISfxBJNzXH1/BG/bK8265fl7UzwkhHXr9Dz53SOeSnbeMfrJiuLH+bgrh2Y/aW99u9BS4fGzYx1QIhFX2jdm/FL2rbDhgqPmNF7qO0ISXWm1XHBkzVANqhURlxvzsWy8++tKbtiu/KF8LXXJYqfvgHYojHVS1OxHNSJtBMpAQSDMBEQhpBi7DJUYgmkDY+bLFiXUeR2uV2W/DXnbPhYeUF40YZPi9bWqk215qxZ/Lg5j7vc9UO1U5lQJB9a9+7599YFno6F2KAwUxAjhNGw/g76ZQyxPvt1e+Nic1GRNj2bTntoW49ZTKSNVEIMQCKH/PagIiELJ6+rqX8cy8P4DHAazzYVitIGRCIKyaAbVXf+sNHU3jjimvLC7QkhZVP2ZyExp/Mi8MVtmVaoGgxlEHSW3Yy66ffUCpbcQg86sjka7i+95sw4cLPP4/l4fMf49J0q0hAiFJIKWbrCQgAiErp617Gs3MTwI4KZz3lz7avOzjr709M01GSYOGO8NnXDRj29RPXc33vdFW5PH/b0eCmfbpFAirxlKrCVP/0xMDu+IK4rF3VZunP+zcFonwG1oT6dlc2z22LcCEUyKmv/gDwFZElHgKTXNmSW0hkBYCIhDSglkGSQaBaAKh9oJ/kjFEUvpQqwlvXx8x+j3qGOp7+/Mfuzpfjsko6VhBWNvOK48uXzJ8s4KaPlW2uDI/Nfzgw9n3JydNc6IMieC/5NDy0NG7FkeKMSknouRMVqLGSnshkGQCIhCSDFS6Sw0BZlZHGqrPC0eEGyFXBEKyMwNmQiAAxBv1sXdcdVR5qdndGroOnjbT7b39ZWdSMzomclWe939l0U7UFIGQCFxpa2kCIhAsPT1i3CoCzPx/AO4D0G9tKr8vCzoPH78s0sE6aYdY6OjMQojDdwq71T+qPbkhEID1e9p91x1bkW9WIDz0TnvTG3PdRUucoWwRCMcR0fNpv8hkQCGQBgIiENIAWYZInAAznw/g7nA9jbmvKdD4oy/l++LNeDFy6wJMPD3q0Q1hu0v2J4bN+uW5nrusR0ylYiYPQiwOz17WQy8pIPSrsZsO1vzur4D/hInLMxaUGM63HTbP9191VIWtT5UtXGarZUQU3/ekWCDl70IgwwREIGR4AmR4YwSiCYQjbl6G35YGjXWUhlpdMQgJZfnTGfrZ9zfRvB99Cd2jB9UVLr72uMqY6Q8TFQjKSEpCkKJKoXzA9Uub2l167PzQaZjLVUPcf3Y16jYLv401VurtNJopQwmBpBJI6OGTVEukMyEQgQAzq1/A4wBcHq6K1QTCzlsV4M4zzK8ehF0dmdyEX5YE/M3tely/qm86odK1b21hSlcQ1PkJR+xc4jl1rxIqLoh+mJWRi/zr3/18ySMtenNHKP5c1EYGMlEnmkAAUExEmUnUYMIHqSoEzBIQgWCWmNRPOwFmHgrgIwAqUHGNMv8nn/+qp532FW0h08vZqXBEI3gb7uqbvGQA6hTJb7wtL3zmqownUdIb1/Vy9qm0xYzP+OnvgH78xOWBkG4uE2WhgzpG719actxu60xN3HiDIQQffKct9OT7HanJPBWHZTeeUOned0hhIVHYsx/kXIY4mEoT6xMQgWD9Oer2FjLzjgBmhQNx7XPOwFsNbrWdzhLX8hVHVPhG7VSU9BebSrU8YVprcPZ3XiWEDIuheXf3NfSpY1FTKHDe/U2ev1YEI560uDb/MQeU8cZ97O5dty6IuUJh9iL++Z8gXz/Fie/+9FtiXjfpm+d5/KKagkKH+pCyTvmRiDYz66PUFwJWJ2CJm8/qkMS+zBKIJhCueaYF78zzZNbArtEJ7HlvfJ+CypLIBw4lYmhTu84t7SE+adIKzReIcHzjWgPMu9tY0ianSw+Mn+p0z/jKG/twBABjDijFCbuVwGHg5MV4fR77RDM+XJC+sxdi2Tnj1t4oLQyrzUQgxIInf89KAiIQsnLauo/RzKy+Qz8H4Ki1vdZ1YNyzLZ0H+Vih3HVWFXYykGp41fHMRo41juSXOu44GAKH9M7jryMWowIhEELg8ffb3Y+80x5VIGy9oUN/4JzqYIGDTMdEqBM3P/rS21ZZTLYhm+THXHVoc+ntR09YVrysVTe8YpLK6yCKQPhJHSBGRIFUji99C4F0ExCBkG7iMp4pAsysXkRhDyP47Fuff/wLTlrRGsr4FsfelTbcfHIlBm8Y+7157gNNnQcvPX1JDbbon6eOOjbFRFX2BTj48iyX65mPXOXLW0MJCwTVwauz3Rj/gjNsX4X55B/UP8/x0Hk1pm1VDZSYe3m2W5/4ciuPGJTvvva4iqLyIi1mEOJRty7z/7I4GBtqXFaZa/TgOdX+2k3zw9niBzCZiC4x16PUFgLWJmD+yWRtf8S6HCMQTSBM+cSFO15ptYTHZ+1XijP2jXQq8P9M/PJXP26Y4sQfy4IoK9Iw9vCywIhBBVxSqMX1Evz4Ky8mvuz0LXHqYeMejK4gRBMIwzbLx8itC1qP2LnY0OeHcBPy1AfqbIV2BlaueFx9dIX7kOFFMc+Jfmeeu+2aZ5yG4yJSeTE4bNQ2e1KfSLY8T0THpXJ86VsIpJuACIR0E5fxTBFg5s0BfBeukVUEgvp1feHB5aFRI4piZv9TJxQ+8f7/zvYpK9JCwzfP7xhzYGlRv2p7XCshX/zi9y9xhuzXPN2yxlL89cdX4IChMd/B/6L9a0UQN09tXeP0SLX3/8ojy1XSI1Pztnrlu19vwzMfrXmeUVWp5n3vpt6GdntYKY12FMElAiHuK0QaWpWACASrzozY1UmAmdWJeeuvjcPl1f33TG/zvDzLHfev2mQhHrZZPt9+WhUX5VPUb+Xqs8KVT7Wgza2vMbRG0HtV2vSpY3vYiwvi+9yuQhb/WBbkv5YHnepX+gY9HeX9a2ymv140t+vo8OhwunR/RbHmKCnUUFUan03KSSUOpn7iQiC0blDl7adXNe22dUF1rHl4/hPX4kmvtMZM9hSrn2T8PYpAaARwBhF9mYxxpA8hYAUCIhCsMAtiQ0QCzOEP/F3wqx+n373CEuR23bqA7zi9Kuq9pLx4/wsPX/lUS7R6/OltfUglHsr2EtLBz3zUQZOjnEpZXED4ZELs974SVLtfscQSSM7cr8x95r4lkZZlLiGiSZYwVIwQAkkgkP1PoiRAkC6sS8DqAiE/j/SLDylrG7VTcdRkRM3tIf20u5tcfy0PRg1U6FFuw+Qx1dioT/xL+pmezcUtId/bjR488FZb1HwQBQ7Co+fXYPP+0b+stHt0HHbTMr2lI/O7GfrX2PHqNT0jIRaBkOmLT8ZPKgERCEnFKZ0lk0DXCY6vh+vTKisI6oX+zg2xz+pZ3BzCQdcvNYRHHdF89dHl2HKDuOIWDY2RqkofLvB6Xp7VEWj40W8osHDIxg7E2hkRDDGe+tAVeOCttrhiNJLpawyBcA2ACbLdMZnEpa9MEhCBkEn6MnZUAsw8E8CItSup/f+XPNrUMWuhL/a2gRQzNioQbprqbH5tjtvwAQ0b983D+BMrs2olYdpMl/7w2+2BFlf4HRXhpqJ2k3w8eG7MMITObaFqe2imS68KW+ipi3u4asq1cALoBwBHENHXmbZTxhcCySAgAiEZFKWPlBBgZhXwNXjtzlUWwRGXLdbBxlMOp8RAADtvmb/szjOrI645rxp32EX/hEI6Yu77X93O6jINk8fUrNikrz2+5AOpcjpMv2/Uu3Hby63w+IxleFzVhSOP9LP2LeWT9iyJysYqAkEj4kOGF+pXHlURyd6RRPRJGtHLUEIgZQREIKQMrXScCIGu/AfzAWwVViBcujiR7pPW1miegUS26p2wR8mSM/ct7RUQTgf5AAAgAElEQVThHICk+RJvR7MW+nDBQ/H/uj9h9xJccHD0LxI//xPwXf54i+/P5cbPiojXn1jt9tquELecXBmpmgiEWADl71lDQARC1kxV9zKUmU8FMBHAOk/in/4OhI65bbmpX+OpomdEICz8I+A9cdJyQ3v+w9lJAO84qCAw9vAyR99qawUvfvqNFxc/0pwQXiMCQQ3w+PvtuP/N9oTGSkbjGAJhDICHiWjNvazJGFj6EAJpJiACIc3AZThjBJj5cQCnhKt98qQV/m/+8Fsigs+IQDj0xmWtf60IJpqvQYkEXHFkOfWptIQ2wiuz3bg5QmpmY7O8stawzRy+q4+u1PpU2aIGIaoEUyrRVKbLZv0cgWuPrdA3Xc8ebpeG2o+5ERG5M22njC8EEiUgAiFRgtI+JQSiCYREluuTbawRgbDXVUvQ0pGcH5TbDHTwA+dUk8Nu7tZ9d57H+9GXHntI74rboM7jsemYkcVttRvnG9pxsDq7qZ+61DZGuLzmYg7C8bfbKHDLSZXabtsURFU+VhEIGiF00SHlfMzI4kjLOSVE5Er2tSb9CYF0EzD3lEm3dTJetyTAzOqF9RiAw8MBsIpAqCzWFr9/c++YmX6SKRAUj89u74NCh/Fb1+tn7/ipTv2d+R6VCnqNhiWFmj7jlt6a2fOirn/eCRWYmKyivumrpftoxSoCQdmoYibUp5EIRQRCsi4M6SejBIw/ZTJqpgzenQgw89nqdLy1X2aKQcOPvqVn39cUO/FAGoCdd1Bp80l7lsbcuphJgRAMAS9+5sKkV6MfavX++N6oLDGeUjkTAuHJD9p58hudMQgZf26dfUAZn7RnMdm0sKaMJ6Kr03AJyhBCIKUEMn6jpdQ76TwrCTDzOV0CYR37j7x1Of+6OGCJ6/bFK3p2DOxtj/gzUhmv69D3vnqJ5nQl6RPDAAceOLcaRj8xqHMQJho48bJfjQ0TT6vijfvmGWL77AyX/vA77eT26Ybqx7oQjawgvDXP03H7S057h4fjDviMZYfRv2/cNy+oPosM6G0Pq6rI9CkYRkeWekIgfQSScnOnz1wZqTsQiCoQblmGX5cELYFBZVBUiZKilWXOUOvRty4vbfMkniZ4xy3yccWRFehTZSxIcdpMt2vCNGexQVi89/aF/quPrtCK8ilmxsJACKHpc93aLS86k/IMMSIQvvrd77nhuRbb78tClghQVQmeVKKncEUEgsGrTqpZmkBSbm5LeyjGZRUBZu4P4BEA+4Qz/MgsEwhzv/e2XPZ4S7nHx8bX79d03HfP6OrOt9CGvezoa1AcqPp7XrVkhbNDN5xkacSgfPd1x1WgssRm+Izo2d/51JGb+OQbn/7yLBWTEJ+fRgTC302h1iueaM5b+FfAsH2pvPijCQQAVUTUksrxpW8hkGoCIhBSTVj6N0WAmesAzAbWzTr48DvtLU984CoJBPWYv3BNDRpnZSMrCB9+6XVf+2xLodfPhu+1bQY4gmOPKOeeFTa13s/lxeE/dMcyu6ld9+1z9ZKoByat3schw4v4qqMqQCt3OJgqKrulx79yR8OMr7yt46c6TW3rNCIQmtv1trGPN+V98WsgejSjKcvjr3zlUeVNh+xQVKWFD/GcRUQ7xd+7tBQCmSdg+kGQeZPFglwmwMzDAMwN5+N1zznxZkPyIucT5WhEIMz5ztty+RPhVxDUa7+yxKY78jq3HvKUy3ugpDA+MRDJFzM7Pg7dsQhKICSrMIMnvdrGH3/t6Vw9aXXrutsbfoXBiEBY3qq3jn2iOe+r3/yWWEFQ/qnjudWx1WHKd0Q0KFkspR8hkAkCIhAyQV3GDEuAufNX9iEAXskVgbC4JeQ8ZsLyso7VYhAGD3BwjzKNigo0/YTdS7wDe9tT9sIzKhDybMQn7F6in31gqbEAB5PXsM7gd+Z7XJ9+7S3Rdea5P/ho9XMbjAiEXxYHO655ptn+49/BjAcprnL/kwl9IALB5MUg1bOGgAiErJmq3DeUmdXLaZZKrre2t8ucodD1zzup/gdfvN/ykw7w+bE92jftmxfrREne66oltO1AR/tWGzo66+6xbaHer9qWFj/Of7CpffZ3sU+97NfDxneeUR0a0Mue8lzOzNBfnePS2j2MNhcH3vvcHTj/4LKiWHkQ5nznc4+f6rQtcYYMfzZJ+qSv1WEUgaAOCzmaiD5NtQ3SvxBIFQERCKkiK/2aJsDM6uUUCNfwzQY3T5jWqr5zW+aaPfuAMvepe5fE/PX/xS9+rN/T5q8utaU9+v7zn33+M+9tijnuFuvnBZ65pEfaYzt8AdZ/XxoM9Si35VWVRtdMUz5x+e9+vU0LhjqvE0uUfYcULbvpxIpwp3mGVLAtEamzGaQIgawkYJmHbVbSE6OTSiCaQFCpfSe+HD3ZT1KNMdBZgQPOmbf3Td5HewNjmq2i64Dbr+Ou19rw2px14zfy86jl3Rt7Var1jKL8tCxqmHXh3/pPvN+O+yxwWNPqDqhDmRrv6hMJ3LNEdELcDktDIZBhAiIQMjwBMvz/CDDzjl2fGNbAooLBnpvRwXe93maZN5imUbBPlc32+jU9s+oeOuKWZaGQDltpodZx3oGlqN00P2qiJytdny/PcuHe6e2hjs5AR+usJEU5j+NFACcQkd9KHMUWIWCUQFY93Iw6JfWykwAzqwfpOsvcy1tDwRumOP1zvvPFXM5Ph+c9ym2BYZs52i8bVV5RXKBZRrSkw/dMj/Fmg7vtifc67H8sD1riWlA8XrumV7BfjS3cZ4+fAIwhog8zzU3GFwLxEBCBEA81aZMSAswc9mjAr37z49S7Vqi/Zfx67VFuC43ev8yzz/YFBQUOssy38JRMiEU7XfCr3z1zoc/+5PvtMWMr0uHCXtsVBm45uTJS/MZFRHRXOuyQMYRAsglk/IGbbIekv+wlEEMgZMSx4nxyHrVrSWDYZvnVGkGlIeYBvfN0h33dRE4ZMbCbDqqCGxf+Gfh39WZJi9723IyO1u8X+VUmzrSW9Xva8cpV4eIUO80QgZDW2ZDBkklABEIyaUpfcRNg5vEArgzXQdcKQtx9x2pYXEA87Yqe7vJibZ1zC4jAdqUMtMyuXnzxqz900xQnL2kJ/btqsc/2hRh3bPpiJOd851ty6WPNvVfnOXiAo+OBc6ozHsfAAAeDDJ3XnaeZ33ox9onUZT2OIRDUNX07EVnjAJFYN4P8XQisRkAEglwOliDAzF8A2HZtY0I6eN9xS5pa2o2fKWDUoV6VNjxxUQ16xjhwyWh/8dTzB6EvcwbhC3RmU+wsP/4dCE5+q42XNodibjs8Zc8S/fR9Syk/j1J6L//8T9B39IRlhvIPbDfQ4f/PkRVrLP+XFpHeszw9uR8izYPaJvvKbBdCyTlY899hakptobtHV7s262cvCzO2Ega7EpFKHy5FCGQVgZQ+VLKKhBibUQKRBEIgxBh+sco5k+TC4AmnVmGPbcPnyU3yaJ3ddXj04Je/B0LN7f9L9LOkSfe/MqdDX96qx5Ud0G6D95ELavK23sCRkgyIqzgce9tyJVzixrLVBnneUTsVr+HjgJ5231YbOgyJjrgHXqvh3lcvQXN7khWCOlmstpDHn1AZ6Xm6MxHNTJYP0o8QSBcBEQjpIi3jRCTAzBsAeA/ApmtXSpVA2KJ/nufaYytsG/fNS0ugm87QZ3zp7bhlmtPh7IhPDEQAyI9eUKMyNab0CktUIIQzbrN+eZ6nLq5x2G2UUnGz+tiHjV/e8ueyQGWyYe07pBA3nRixWxEIyQYu/aWFgAiEtGCWQaIR6Io/uATAOr8mp33m8kx4qTXpp/ftvGVB29VHl9ury4wfbez2Md/6Yqv/z+XBTjuvOrrCuUlfu9EgAP7vfI9+1dMtSX0ZHjuyGKP3L0NRfmpv5fk/+V1nTV6xToxGIle2OsNgxq19WDN4euTbjZ7QtJkuYoaKCOFhmzo8Yw4oM7Xdcf9rl3iXOZMq0DoRxBAITwI4k4jiX4JJBLS0FQJxEkjtUyVOo6RZ9yLAzI8AOD2c10Mv/AfhNz8mxkhd+LeeUqnORYjZ0dVPtbjfX+AtYLCmMhOuKp3nLhKwy5YFmHh6Vcx+6n/weS97tCXo9utJC+q75LByHLNrUt/bEf0wevBTTBBdFfbernD5zSdX9ohV39mhh/a+ZolNXQerXwud+DvPwSR+87qe1LMitvZK1SeGyhLNfeVRFfpugwvCza3aoltMRJ5YvsrfhYCVCIhAsNJsdFNbogmEZL+UVkc85oCywF7bF2L9GtsawYC/LgnC5dX1B95qb2v40WdoheCs/Uv5jH1KY95P97/Vrj/+XnuXtEhswjddz+G/9thy3qxfXlq+41/wYNPyWd/5Yr7QjXilMlE23NnHUB4Jo9eAXQMfsmOR59DhxUW9K22hsiLNtip0c0VbCJNebW//YIGnWNfDHzltxO5odS46pAzH7RZR+xWJQEiUsLRPN4GYD7R0GyTjdT8CmRIIinTfanvHKXuWrPFUn/xmG1pd5gLZjhtZHDjnoDLNYY/+PX3mt77ALS86bUudoYQzMO5XW4gbTzD3OV2dx7DyVzhjm4EODOwdc6PEvxekiv4fdtE/SblADxle1HH10RUxV1L+Wh70HXqTsd0Tqxu29/YFniEb5xdotFIifPqNF599602K7ZE6EYGQUrzSeQYIiEDIAHQZck0CmRQIyZqLfjV2lU1P26J/Xsx17lunOd2vzHIXhtuzb9SemjKtMyiudhPjiwdPftCB+95s+3eZXgU2KoHRpyqmyZ1mKWEx+c02fuqDjoSeG+v3sHkePLcmv2dF7G2Plz3W4pvxlce4k0YBpqCeCIQUQJUuM0ogoRs9o5bL4DlDIBcEgpqMu86qwk6DYu9WbG7XQ4eNX2rr8ITNLG1oXgf0smPalRGz963Tx0szXZ57p7c5XD5eQw2csmdJ6zkHlZUbGhTAN7/7cfKdK4xWD1vv8lHloVE7FWu22Mmn+P9uWEr/NKmTk61fRCBYf47EQnMERCCY4yW1U0AgapDiBf8g/tdoCoyN0eV7N/VGVWnsrwfqhMqhF/4T9/331MU9lm25QZ4hhaB++U94qRUvzXSFtb7+zj6wdUZcxi6LW0LBq55yer/6zRfz80C43tQ3evUiNVL+80QLPliQHXF9mgb/ZYeV8xE7F4db7ZAgRSMTLnUsR8DYU8FyZotBuUSAmScBOA/AOkFrj/y3vfWht9sN/8LNNJd7Rldjxy2MrYgfP3G55/u/ArG3UazllEYUbLjLWICfavpGvRvXP++MiKbAobXPvL13qVF20z5zdQoOs6WkQAudc1BZ6IidimImbVBBhdc840Tjjz6zw2Sk/t7bF/L4EytB4bdsvgFglGxzzMjUyKAJEBCBkAA8aZocAsxcB+BFACph0holVYmSkmN5+F4a7+qrXhQxiwqEvPqZFsz5ztxL8NjdSlwXH1JmaG+jGmPiK614Z170X+K3nFyJvbYzplW++MWPm19w4relxo8XsNuACw42vCWTVbzE5DfaDFCMiTnlFUgj/dDhRYErjyyPpAwlUVLKZ0EGSAWBrLgBU+G49GktApFSLesMPPR2Ox57r91aBkexRiUvuvhQY4sefywLhsZPdfLnv/gNbflTw352ex8UOozduj8sCoSOu315zCjEzfvl4dnLjO9gVCsSamXCaBlzQJn7tL1LDCU1+mVxAOOedfIPiwLGnDRqRIrq1ZRpfPdZ1YHN+kXMyikCIUXspdvUEsiKGzC1CKR3KxBg5ndVSvtwtvy8OBA89/4m/4o23dALJtP+FBeQftOJFe07b1kYUyWoWIQXP3O573uz3eH26TH3HF55VHnwkOHF6oBJQ+XgG5fx3yuCMWvn5xFO2rMEZ+5r7EvDnO997dc+6yxsbv/f6ZKRDOpVbmt/dVyvIiNHZPuDzDdNbXW+3eg2t3/TEI3UVHr+8p7eTdezR4pOfRTAWCJqTs3o0qsQSB2BmA+O1A0tPQuBNQkwR86ZOG2mCxNfbk36SXypmoNdtirA7adVIfZGvpUWXPZos3vG1161xh/xnlSfLR46rxrbb2QsxuHtRs+ycc+2GApkVDbstV2h/5pjKlTa5pgxAqr+MROW4ad/on9myLNTcOrYHrYNetoNPWua2nTsc82SVE1L0vutKiXnezf1iZRMSyXTuIiI7kn6wNKhEEgDAUM3bRrskCGEAJj5MwA7RULx+PsdePy9dnj92bGv4cTdS0KjDyglh70zIXDMcuFDzcGZC72qbtj6QzdxeK49rjKvd6Ut5ueIRSuCwcNvXmYPmtwheM5BZcHjdyu25f2bgzCy2eOntnpfneOKuK+zR7kN1x5bgR02NyZoWjr0wF5XLYm5ihITZJoqbNw3D09eVIOCyJ975gI4g4i+SZNJMowQSCoBEQhJxSmdJUKAuXOPfj2AIZH6efCd9sCj77ZnxUtk/R52780nV9o375cX84W+yt/xL7T6357nhs/P6/yKj7HPfg1klzza7P7ka6/pTzIb9LB57x5dk9evxhYzbkENGCkNcs9yW+jyw8ttIwfHzguxyvCbX3B2vDLbHdf2yUSuu3jabreRA+OOqUD/HhGnVn1SuICIno2nf2kjBKxAQASCFWZBbOgkwMzqejy8a0dDWCqBIAcPu2mZZ3FLyNjH8gyzHbJxPiadUQV1cqGR4vUzvzPf43nhkw7t58XBf9+u2wxwQC3/b9grttZ4q9HNd77aDqcrZGzQtQzbfdsCz22nVBna0vDyLJf/lhdb1xAzW/TPc57/f2VlQzfNN7RyooZ/4VNXZ5ZHt8/6q0Mb93UExx1TzoPWz4smVGer1TAisr5DRi5MqdMtCcT1AOmWpMTptBBgZvVSvALAuEgD/rUiGDr0xmWGfuGmxegYg/SrseO1awyHAiAYYm7pYL7ssWbtmz/8nb3HOE54DQtUrMbUT8MnRTLCgwh64119Db3cfQHmEZcu/vc5cvNJld7aTfLtVaVabCXTZczrc92445XWrBAHmga1pdEz9oiKohjHVPcnokVGeEsdIWBVAiIQrDoz3dwuZr4fwFmRvsd//bsfoyc3wRfIjh9ogwc42h45v6bUQHrhNWZ+/2uXwkYI3nRSlWubAXkxd0W82eDGdc9FTopk9LJSAZEqn0Osouvg0fc1tXz7u79y3LEVtM8QQwsP/3a78E+//+JHW/wrWkNZ8Wlhs355eC76dlClzHoSkfE9oLEgy9+FQIYIiEDIEHgZNjoBZlaR4R8C2D5SzQ8WeHjCtFa0dOiWv44L80m/5NCyjoOGFZfYtPBBiJH8/HVJsH1gb3vMTyoeH+ORd9vx9EcdCV9eCuhTl/TAoPVjh3ssdYaCP/8T9I0YlG8oedMq43wBDt3xSqvvldlu07ESCTsYRwfbb+zAw+fVRGv5F4BDiOjzOLqXJkLAcgQs/2C1HDExKG0EmPkEAE9HGlDXEZr4itP/8mxPfijEhpbE02Z8mIH697CHrjiiPFi7qcOx6hjiZNoz7ye/Z/TkFeZ+wkcxYIv+efzkxTVs04ztwjDpC9/3ZnvoiffbDX+KMNl/UquPGJQfmHBKVV6UHQsBADcAmEhEqT1XOqmeSWdCIDIBEQhydViaADMfDWBKJCP/XB4MnH1/k31Jc3wBeel2fsNedv2aoyv82wx0qL1/Sb3/jr99mf/7RUFDOQyM+F1aqPG5B5XxqBFFSRVfDLCKk3jhU1dS/TfiUzx1igvIN/G0KnW0dn6UFNofAziViH6LZwxpIwSsSCArblArghOb0kOga2fDoQBejjTi8tYQ9hu3ND0GJWGUimKNbzutqn37jRzGjjU0MOZt05wrXpzpjrr+baCbdarUbuzwXHNMBa1XEzFToKluAyEEbn+5labPdZnO0WBqoCRWPnXvEj5j3zLk2SIKOiUKhhHR8iQOK10JgYwTEIGQ8SkQA2IRYO7MCXApgBsjBS2q5EkqA5/Lmx1Bi8rnQ3csXnLhwaW9iwsS/4F+wLVLOwM2/UFO2m6A8mKt8414yWHl2K82sS8XalYWrQj6J09v83/4pTcrAhJVOusDhxV15juIUpxElDVpoWPda/J3IbA6AREIcj1kBQFm3hnAgwAGRTJ4wS9+//kPNWluH2fFd22V+mH7jfJD1x5XYV+vOjm7Nuf95As++5ELOq9k4PZx6Kd/guzy6lGZ9Kqw+fr3sNkdduo0RCMteMcZFbBplBSWn3zt5WufbfF2eDkxpZHGq3WfIYWh8SdWRpsYdURmLREtTKNZMpQQSBsBEQhpQy0DJUqAmQ/rEglhjx1sdevBSa+0Bt9q9BhP35eoUUlor1IRX354eah/D7st2Tdkq0v3f7jAy8taQ1HzHQ8e4Oio3djhcOQZO4fBjNsvzXLh1hdbzTTJeN2aMpv79XE97fnReUxWCyxEtDJZhRQhkGMEkv08yjE84o7VCDDzbgA+imTXohVB3PC8E5//kl3P7C3Xd+i9Kilw26nVxg4usNrEhLFHrei8NMtFn37jzcuGDImru3Dv6Gr/8C3yowV8PqnO2CKiFVkwFWKiEIiLgAiEuLBJo0wSYObtAETca97u1nH8xOX4u8nkSUWZdGrl2Lz1AAceu6BG1wjJ+eaQIZ++/SOAcx9o4g6vDubk7tZItUvjT6rE3tsVIsqOhekAjiOixBNOpNoZ6V8IJEBABEIC8KRpZgh0BS2+DWCPSBaEdNZ3uXwJ+wKdB0BlVelbbfNdfXSFXrdpftZ8r18d8JG3LFv665Jgr6yCDsBhBy44uJyP2qU42nPxZwDDZeUg22ZX7I2HgAiEeKhJm4wTYOYtug512iqSMVM+7lhxx6vt1UDnIVBZU/barhC3nJy9gfFqN8WISxdnDW9lqEbgfYcU+q49rtJu0xAtMPNqIhqfVc6JsUIgTgJZ9eCM00dplqMEmLkOwMMAtgnnYiDIuHVaK78+151V17kIhPRfsBXFNv2OMyp92wxwRFu1uZmIrkq/dTKiEMgMgax6cGYGkYxqZQLMPATAawD6hbOz1aXjnultUCcGZkuJJRA8PvYU5pNlPz9k4wrCQ+dVQx3NHaVc2ZVGWaVUliIEugUBEQjdYppz20lmvhvA+ZG8VEmUrn66BR9/nR0p8mMJhP3HLWV/kGn3bQr1/xxZrpbHE8+0ZOASCenAPlcvDQFsu2xUOSKd3JhtAuHlq3pig55R0z3cAeBaIor/DG0DfKWKELAaAREIVpsRsScuAsz8O4ANIjWe+7235aqnnaWtrugJg+IaPImN1qu269Ou7Ol32LFGLgePn/H70qD72mdbHL8uCa7zNttn+8Lmcw4qq1plSqGD9MoSlQvQ3A4Cr5+51aVTqCsh5a+LA4F732jHL4sD6xzreMHB5S17bltQ2adqzThQZvCUTzpaJ73aFjUFYRKxxdWVzUb6pNOrQjtukZ8XZceCOqHxHCJ6I65BpJEQyGICIhCyePLE9P8RYGa1PvxfALtG4jLx5dbQ1E9dlt7VcOTOxSpp0tou8JuNbr7uWafhlYIt+ue5jtutJD/PFjXgbq1xiL/+3e9/dY47z+XVDY2VZyPMmdRnHeS/LQngiqec/PM/Acs+Y3YclO+68qiKvN4Vtkj5DtSKwTgimiT3mhDojgQse/N2x8kQnxMjwMzrA7gfwAGRenr43XY8/E57YgOlqLX65T3/nr7r3JMtHTpf80yLPvd7n+XEjaYBl48qx+E7Fa8jap6b4eI7X2s1JDRShDRitwN723H10RUYPCDq4ZejieihdNsm4wkBqxAQgWCVmRA7kkKAmQ8GoFLghg1aVN/Rn/+4A3e/3paU8ZLZyR2nV2HXrdfNEv3nsiAOG78smUMltS/1kn38wnUPklzaEsL1zzvR8KMvqeMl2llFiYYHzqnGJn3X+WqyetcqEdLziY4l7YVANhMQgZDNsye2r0OAVx5S9AyAoyPhWeoM+W+a4vTP+d5nmVMFrzyyouOQHYuKNVo3ZmCXyxcn7YTGVFwy+XnkH71fifeEPUrXOb76h7+D7Rc+2FS0vC1kmdWPjyf01ksK1NpHxNIIYE8isp6KTMUESp9CIAIBEQhyaeQkAWZW8Qh7R3Ju+lxP8I5XWsnl0zP+4qootvGkMyop3HK3ygg57KLFllymX53t0bsU49JR68ROdFY5/8EmzP7OGqsIx+xasuSSw8p6R7no1dkKhxDRrJy8McQpIWCCgAgEE7CkanYRYOYXARwRyeqpn7hw31tt8Pi6QvYz4F6vChuPPaIcu2xVEPZefHWO2z1+qrMoA6aZGnLHLfL1K46qQJ9KW1gxM2byCl/jT/6MHkS1/Sb5POm0SiopjKi31I6F84jodVPOS2UhkKMERCDk6MSKWwAzqxfrDAAq42LYMn2uGzdMcWYM1+7bFvKEkyvVwUBh78Vdxy6Gy5s5AWMUDIFC151QTgfUFoV9+y5pDnkOvH5pxpI7Dd8iH1ccUYG+1REXjFoAnCLiwOiMS73uQEAEQneY5W7qIzOrl9XhAKaodPuRMNw7va31qQ87wq+Pp5BdTZmGB8+t4Q172SPeh9kiEBSm646rwIF14Rc7AiHwJY82eWYv9KV9NWSbgQ6MP7ESvSujfk1SxzefSkTWV2MpvCalayGwOgERCHI95DSBLpEwFsDNkRxtdbO+z9WL/cHQmsmJUg1G/ZqdPi7yoYfnP9gcmP2dN2qofaptNNP/sM3z3TeeUJlfVaKFfRM3/ujDmPuazHSZcN1Chxa6+qhy5z61hdVROlOiIJ+IJI1ywsSlg1wiIAIhl2ZTfIlIgJlv70rHHHbj+1e/+XHpY81obtfTRjGaQFDBiaPva6IvfvZn1T364hU9oXIMhCuf/+zHmfeqGMD0laGb5gcfOKc6Wh7lPwBsR0TqE4MUISAEViOQVQ8fmTkhkAgBZn4JwKhIfXz2rRe3TWvF4pZQIsMYbtuzwsZTx/bwlxVp6y88BUMAACAASURBVATvzf3e57tpitO+xGmd7YFGHDv7gDKcuve6u0dV/okH327jJ97vSNszJ9aZFgC+AHAyEX1lxDepIwS6G4G03azdDaz4az0CzLw5gK+ByOmHX5nt8dz5Wmu+x2cs1XAiXubbiU/ft9R3yl4la2RH+n5RADdOceKHRdm54n3cyGL9okPL14j5WNoa8h9wzdI8RAjGTIRjuLaH7ViEiw4tR6Ej4iNOLWVcTEQqZ4YUISAEwhAQgSCXRbciwMy7A/gwktNeP4eOvW1Z4M/loXVTGqaAVHmRho162z2XHl5h33Q9e94bDd62x99rK/treTAFo6WnSyLwiEEFgZP3KPb272G33/Jia8GiFUH8vDiYlnwOW6yf57n+uErbwN72aHmUVZ6Mo4ioNT1UZBQhkH0ERCBk35yJxQkSYGaVQEm9IMIWnYG6C/9JcBRzzVedu8istmeaa2vV2p0+AVA801j0s/Yr08/YtyRa3MEidfInEaUv4CSNAGQoIZAsAiIQkkVS+skqAsw8GsBEAOucMqQcaXPrOPGOFVC/fKVkBwG7BozaqRiXRcjo2OXFN0S0dXZ4JFYKgcwSEIGQWf4yeoYIMLNKt6v2vqvVhLD3wQ+LAqErn3bqfywNZM1WwwzhtMSwx+9eggsPXuc4iNVt+wnADkTUbAmDxQghYHECIhAsPkFiXuoIMPNIANMArHsUIYBgCKHH3uvwP/5euyOkc8bPbEgdiezveY9tCjomnFoV7fAt9aHjAgAPEJEsC2X/lIsHaSAgAiENkGUI6xJg5i0BfBPJwpYOna94qgXzfvTJvWLRadQ08k/9Tw8a2MsebaXnQQBj5YRGi06imGVJAvLQs+S0iFHpJMDMVQCWR0vHfOB1S7EkTfkR0ul7to9FBEw8rQq7bh1108lrRHRotvsq9guBdBMQgZBu4jKe5Qgws4p4PxvAndFEwqjxy4J/LAtGi463nG+5bJA6lfG8g0oxakTYONNVrjcQ0bBc5iC+CYFUERCBkCqy0m9WEWDmTQE8CmDnSIb/ujTYftyE5QWBEEvQYoZn124jPmnPEv+Y/UujHSGtUmLuQkSzM2yuDC8EspKACISsnDYxOhUEmHkwgMcBDAnXfyAIfvjd9uAT77eLQEjFBJjos7pU879wRU9UFGvRkiGdT0T3muhWqgoBIbAaAREIcjkIgdUIMPP6AOYA6BsOjNvHuPeNNkz7zCXcMkjglat68vo9Ix+TDeA8AA/KjoUMTpIMnfUERCBk/RSKA8kmwMzbdB3kE/H+uPzxZsz40ov0JglMtqfZ11+ejfDqNT3RuzLirlOVHfF6Iroh+7wTi4WAtQiIQLDWfIg1FiHAzG8B2D+SOW6f7jnqlmW2xS16tCVui3iTG2ZUFGuhW06upKGb5kc702EugOOJ6Jfc8Fq8EAKZIyACIXPsZWQLE2BmlXRHnfR3SCQzX5rp7rh1mjNach4Le5hdphHAR+xc5D3//8ryChxapJ0k6rvPuUSkMmRKEQJCIEECIhASBCjNc5cAM6s4hLsAHBHJSxWLMOElORAw1VfBJuvl8fgTK3lgb3XiQsQyioheSbUt0r8Q6C4ERCB0l5kWP+MiwMwDu1YSdgzXQUgHXpvjwi0vikiIC7CBRirfwYv/6YGeFVGzXe9KRJ8a6E6qCAEhYJCACASDoKRa9yXAzJPU0jWAsNsbQzqH7n+zPfTUh648gOWeSuKlkp9HPGtin1hMbwRwMxF5kzi0dCUEuj2BWDdetwckAISAIsDMUwEcFYnGrIU+180vtOQtdUrQYrKuGJtGoXtHV7fWbeZQqbAjFXVC44lEpIITpQgBIZBEAiIQkghTusptAsysku6olYSw5Y16N257qRUev2x+TMKVwHtvX+S/8sgyR0mhFuk59SuAMUT0XhLGky6EgBBYi4AIBLkkhIBBAsxcCOBWAOdHavLZt15c9HCzwR6lWgQCvNs2hfplh5XZosQdtAE4gIhmCkUhIARSQ0AEQmq4Sq85SoCZRwJ4EUCPSC7++HcgdNXTLc7flgSrcxRDytzKzyP9phMrWoZsnF9dVhRtwwL+j4jeSJkh0rEQEAIQgSAXgRAwSYCZLwNwE4CoSZKendERfPrDDk3XobW6dGbI/bY2avUAKnAQ8vMIFSWa56Ure6pVmljlFyLaOFYl+bsQEAKJERCBkBg/ad1NCTDztQCuABDtNMF/6Yx9osXr8ekF3RRXRLfz8zT9gKGF+sjBBUaP0f4CwL5EtExYCgEhkFoCIhBSy1d6z2ECXSsJt+Wwi1ZzbRaAM4loodUME3uEQC4SEIGQi7MqPqWNADOf0nVEdNrG7KYDLQBwLBF91039F7eFQNoJiEBIO3IZMJcIMLNK73cCgCdyyS+L+bIEwFZE1GQxu8QcIZDTBEQg5PT0inPpIsDMNQAe7joB0lBcQrpsy9JxVFZElb+6joj+zFIfxGwhkNUERCBk9fSJ8VYjwMzXAdgOgDroqdZq9mWBPQEAbwOYA+ARIpKkElkwaWJibhIQgZCb8ypeZZgAMw8CMKrLjO0BHAjAaKR+hq1P6/A6ALUz4X0AbgAeIpqYVgtkMCEgBMISEIEgF4YQSDEBZu4HQAmGqMcRptgMq3av8lL/DeAHIvJb1UixSwh0RwIiELrjrIvPQkAICAEhIARiEBCBIJeIEBACQkAICAEhsA4BEQhyUQgBISAEhIAQEAIiEOQaEAJCQAgIASEgBGITkBWE2IykhhAQAkJACAiBbkdABEK3m3JxWAgIASEgBIRAbAIiEGIzkhpCQAgIASEgBLodAREI3W7KxWEhIASEgBAQArEJxCMQNAAquYn6J8XCBIYMGZI3f/58lbpWihAQAkJACAgBUwRiCQStrrb2FCI6FkBeZ8/MpAGXzJk3r8HUSFI5pQS22267vnk228NEVPbvQERL6xsajkjpwNK5EBACQkAI5CSBNQTCDnV1o5l5PIDC1bxVwmDNHPK6vk/9/Pnv5SSRLHCqrq6uGsxvELDtauaquVSnCK4+p7/VNzYOzAKXxEQhIASEgBCwGAEaNnSo+U8FIhDSPo071NVdx8zXmhxYBIJJYFJdCAgBISAEVhIQgZAlV4IIhCyZKDFTCAgBIZAjBEQgZMlEikDIkokSM4WAEBACOUJABEKWTKQIhCyZKDFTCAgBIZAjBEQgZMlEikDIkokSM4WAEBACOUJABEKWTKQIhCyZKDFTCAgBIZAjBEQgZMlEikDIkokSM4WAEBACOUJABEKWTKQIhCyZKDFTCGQ5gR2HDNkoSHQGEVWuckUDnt+7sfGz6wE9y90T800QEIFgAlYmq4pAyCR9GVsI5CaB4UOH7qszX85EFas8JKAYwIYAHP/+P10fU1Ba+ujHH38czE0S4lU4AiIQsuS6EIGQJRMlZgoBixMYNnTo2QDuM2MmiUAwgytn6opAyJKpFIGQJRMlZgoBixMYOnToGA2434yZIhDM0MqduiIQsmQuRSBkyUSJmULA4gREIFh8gixknggEC01GNFNEIGTJRImZQsDiBOqGDBlNmvaAGTNlBcEMrdypKwIhS+ZSBEKWTJSYKQQsTkAEgsUnyELmiUCw0GTICkKWTIaYKQSymEBdbe1ZRPSgGRdkBcEMrdypKwIhS+ZSVhCyZKLETCFgcQLDamvPBNFDZswUgWCGVu7UFYGQJXMpAiFLJkrMFAIWJzB06NAzNOBhM2aKQDBDK3fqikDIkrkUgZAlEyVmCgGLExCBYPEJspB5IhAsNBkSg5AlkyFmCoEsJlA3ZMjppGmPmHFBVhDM0MqduiIQsmQuZQUhSyZKzBQCFidQV1t7GhE9asZMEQhmaOVOXREIWTKXyRIIgwYNcpSUlAxm5vJorhPRioaGhi+timfIkCHldmB7XdO0WDYSEYdCoT8GDhz4+7Rp00Kx6lvl7yNHjizwtrdvA6LCEJEtll3KT2YO2my2P/v37/9XBn3Vhg0bth2CwTIj87PKLyLyNzQ0fBbLTyv8vba2dqCmaRsyMxmxh4h+bWho+M1I3VTXGVZbeyqIHjMzTjYLhKFDh+4KwG7EX03TXD6f7/sFCxY4jdTPRJ2ddtqpMuDxbKlrWn4842u67qufP3+mkbZpFQh1dXW7a8BQI4aFqxMIhZ6eP3/+4mjthw0bVkbMRwKoNjqODqyw2Wyvzpkzp9loG1VPvWzLSkouMtNG1WWiB+rr69vMtEtEIGy99daVxYWF/wegNzOXgPkEEG0QdXzm70jTnuqy97n6+vpFZuxNRd2RgwaVeIqKjiVNq9SZNyDgTAAxX5xdtnxEwAydyA/gp4aGhldTYWO8fe4wZMgw1rSdaTUhoOt6JYhOJKAGQJ6BvpkBN4CZGjATRIFVbXRd15movrGxUb2A2UBfhqrU1dUNIOZRa9lt65wbovWMPpi7BnMBuEkJHWUvNO31hoaGHw0Zkp5K2g51dZepoXTmvcC8GxHFFKhdpn1ARB8ov2zAB3PmzfsimSbvMHToySDqZaRP1vVaEB1upO6qOgS8ykAjESXtNEdmbq9vbDSV8tmozTvU1o6Epg3rfH4xXwug0GDbZSB6lYDfmDlU39g40WC7lFYbMmRIXp7Npt416lfARgCOBlAa56BtRHTzqras6z9X9ejx5jvvvONbu7+0CYRhQ4bsBE1TqnXTeJxi4FGb3T421kt8x+222yBkt78LYHMT4yy0Mx82a968H0y0gRIj0PVWM21UXVswuOHsL774w0y7OAWCC8xvM5G6kHYg4N8T28yMDeBjEK0oLCo6JhOnuanjZ0Oadh2YK6Fpu0KJnMTK3yCaw8CkhoaGOYl1FX/rYUOHPo6Vc6OeYpsB2BKA0ReO2YGVKFDX97cgYjD/roVCD835/POfzXTUORdEN0LTVgoW5l7MPMLEi9LocMreuSD6m4HRDQ0NTUYbJrve0KFD99WIjgWzOuXwsAT7VyJuARH9ksz7adjQoUpwbJugbeltTvR3fUNDv2QOusOQIaPZZtsDzIPjfdf8++Jk1knTXiHmzwqKi+/PxLOvrq7uNDDvTcwOEB2STFar9aV+dDcy4GXgg8bGxn/jU9ImEOrq6o4l5uficpD5LZ3o9MbGxiWx2scrEELMh83LPYEQC5e5vzP/AaKX6hsbLzXXMP7aO9TWPspE+wNQv46S+vJkYDkBrvrGxgHxW2i85YgRI0oDPt9VRHRUV6v+JlZAjA9krKYfzGPq58173Ej1YXV1b4F5EAC1rNlb/ZIx0i5JdRaBaEZ9Q8OJSerPUDeDBw8uLszPHwvgHKwU10m9/kD0BzN/19DYuJ8hg6JU6u4CYauttupVVFj4ATFvCKJEf0CsTdqlfiDpzIc0NjYuSHSujLTfYfvtt2AVSEqkhI7yJ133WzuYx9XPm3eXsjMtAmGHIUO2Z02bbwTMOnWYOxi4oWHevNuNtBeBYIRSYnWY+eoOt/vuhQsXdiTWU/jWI0eOtDudzpL8vLxZ6ktOKsZYo0/mDgIOCjA3zJ8/Xy3RJ6WoT1Dl5eUlgUDgUJvJoLCkGBC9kwATjWloaDD0LdoiL6Am9elin8bG164HkrbUHQaTVldXV0nMK9IwD2qI3wm4pKC4eHq8v1ItMj/mcCVhBWG/jTfOb6qouJ2IzjM3eNy1f/QFAsNSFaOgnn0ej6c3dP2vuC1MsCERXT+3oeG6tAmEYbW1X3YpIdOmM/BAQ2OjOr/cUIlTIHzLRIeZ/d6ZBZ8YDDGLqxLz6wgGL6tfsOCnuNpHaKSCDzVNO4mACwgYmMy+Y/SlghenQNMura+vX5qMcYfX1R2qM98DIKnLqMmwDcA70LQzjcaWWOkFxMwnNcyb93SSOKzRzZAhQ9a3E9WB6EkA6pNC+grzRfXz5t0dT4yIlebHMLAEBYL64Qmb7ShmvtzwmMmp+KuN+eDZ8+Z9k5zuVvay44479gwEAqPMHsWdTBs6RUE6BUJdbe3lRDQhHidUIMXchoarzLQVgWCGVsJ1PygsLj7o448/9ibc08oOtLra2vuI6IxMLb0z8HxI18+eP3++6diStRlYWSAQ8OjcxkbF2VCx2AuIWdePb5g//3lDxhusNGzYsE1Y1ycQoJb8Cww2S2o1Zr6uYd686812arH5MWZ+AgKhK5eDCtpL/QpjOG+Y58NmO6u+vj6+lfG1+hwyZEiRjegyIlJBsOkVpmva0kbAf+Y2Nnae9pnSTwxdOb/vBeAwdsX8rxYR/WduQ4P6rGBqKVEEglnSidU3u8ITbbRhtbWvpjAQx6ijTMy3z503T317TqiIQEgIX6zGP9U3NsYV8Byu47q6umpinsrA7pTsWINYnqz794n1jY2duyWMlu4kENSODQbU7gLDO9WMcjRZ70stFDrcbKBvuDF2GDr0MAbu64rvMWlGEqszzwwyH7lqt2BqBcLQoe8B2CsO8ye2u1zXx/ONWwRCHLQTaxIgoslzGxouTqSbutrap4gorUFokexlZl/DvHkJ/4IUgZDIFRGzrc7AlIbGxuNj1jRQYdjQoVeoLZZJD0Q0MHaYKgv9weDIL774YrnR5t1FIAwfPnw9PRCYCqKdjLJJZT0dGNfY2HhjImPU1dXVEvMHAKLmpklkDMNtmd+qnzfvwFX1UyIQVIIXt8s1iYAxhg1bVZH5O51odGNj46em2wIYMWTI+kFN+6/JbY4SgxAP7P+1mdX1PXthPN3ssMMOG3IopOYsab8I47FjrTZNdodjwKxZs9rj7cvCAmERMZ8wd968j436ZtEX0I8acOacxsZPjPoRrt7QoUN7a0DU/CqJ9B9PWwKeD+j6GUaDZi06P9FdN/mJofO90tFxWxoDEg1NnWa395szZ87fhiqvW4nqamtPIKLOnDMZL+kQCMNqaw8H0RSTSVIUmzYduKaxsVEFdsVVRCDEhS3hRsx8m9fvv+Grr75SyW4Mly5xoE6Wi2elyfA4cVQMgnly/bx5phNhrRrLwgJhQX1j43ZmmFj4BXRrfWOjilMy9Slyle9dCaqUOM38r7c1J0RlxRzTMG+eoWOZLTw/kS8zEwKhUxy43f+hlUmPLFfqG/+/vSuPk6uo1ufU7Z5kMomYAA+VNSwuEXAmfZcZAnkDKoggKE/E5SFBk6AouKE+ccMFnygKLiAgoILwVMQFgeh7KlGSzNylJyFqEAkSUEEhQkJmksx0d533Oz0942TSM11V93anZ7j1b59zqupU9b3frTrnO6FRGiJnOs1pa9uNoGhPTZAAfhaEIZPqlVviJwhdXV3zZLHIRAvahCKVtKtr4jgnBQhxvBdL93EolV7l9/WtV7Vy5plnWo8+/PAFgHiFqs4Ecgwwdmd6ROwEIuZQMG2/AyHONQ1ESgGCqds19Ij8EsDSyDCivMLvEGePMFnUFwFx/ElTlgAWIwDT/Jo1ortFNrtc5et0ugMEx3EORID7MV4AH7OI8qnZKMNoeWGI5gHiuw0+aEfXFQHOHwns01ls17bPQ8Q47zx+7n0XhhlUJ2qIAA4BjF4dTCC4AwAuGstumThA8ByHj/sW6zipskiv9aPop9p64xRSgDCBB4nuJyE+KqSsnnGAeAQBvAfipBYSvcmPou+rpmnZtv0iC5HXnFkEdRufVHwHie7cWSz2VMtL5ngUaVkLCIBPtN6m2wE/SCpR5aO0pDo2nvUAgegnCMDgbcJG/OU+nLVygo5vx8oS4uuCIPiJrr7rum8VRJcTwL66ugBQJKKLBcDvZ27efM/KTZt2+V8x+H3kkUcOE1IeRogcbM0smdpNArhhGIa1FF3XPQmZmluhEUA3Ip6nIDoqgkQ3SKJfJ0m1jADbe6PoDpVxeI5zDwB0q8hWkfkbEi0rAvx5/vz5G8fXKClnEFjWcSDlITFe1n1+GOZ0x+c5DtP7K63bWNsIsBaIPiqF2NLf35/fsGEDU8hP1HBRLndgCbG8B4sA2cpzdxd5Jo6bNTBw6Mox/DaJAgRn4cIlwrK+peskQjw1CIK7VV8sk9lPAcJu3rmjKOXb+WWXz+e5/kNVHv4RcqKZ2exdBHCM7hqW5Yn6W2fPnqtK9uI5DjMyKhFgjRvPTkI8YNasWQMqKZZdXV2tslC41TBD4kvbBgYurvEHrOquhAFCCYh+TkJcI6V8cGho6OlsNsvH6lkhxDwslQ5Ay2K+kNHjwYnWUAJcGYah1tWJ4RfqlX7tfsSiRYvaikNDzDvwOhPGOEOAgJ22/VlCvNhgr99hDQ4uG8xmn87n87t+jVYxxtweWSHWE8BBun0R0ZeDKPqAgh4fcSsdc9u2vcTSLdYEcH5Byuvz+XySxc74WaRUF8Rz+ANYv1Gx6LS0tT20atWqp2tpV0DdaQhwBRBNXqtmd2OcHvjxXs3rcZN5EeLHAOCaGPTjmMvlyhkgGSEuBAD+D3BNm3/4YcgsqaMtMYDged5+ICUXVnlOrYUY8/sAIb5Hlc1Nxa4xQBgaOiO47z6twjBTgCjpYT8MtcmGPNveAIgvUfH3eBmRyexdq15GRUd4jqP/sCF6zI8iLgKk3VzHWWly5Gv4AoJK6hIT3+gQJXF0/j+Q6GN+FPFL0+hufcQ55TvOWbOWEOKHsFLYyoRauo4AYXQdY3wlPlWU8shahdzGbhjXdV+LRCYFu1b7YWgUQe85jg8Aru7G9cOQKZ6NXpDV+nIc51wBoESxPaK/J6s5uo7zBOqf8mwXAK82CWB1c7lTUAg+9tf537KrrvPDUOtkxgAg7OBie34U3a67j2rJu7bNHBxlBsXRdTcYIICUJ/n5PKcwlltXLneUtKzvVgpk1BrHyO87CPGK/v5+Tmec7HhE1V5ZzhQgQKHwOl1WwOkKENiPnm3/AhBP1HL+cOW0m4IoOqeWnmfbb6wEstYSHfu7lABHh2H4Bx2lsbKe4/CVRs2v7LE6MQECB9zqAJpngOiDfhRNejRvOn9TvUYAhPK+cxwO2NLmTQEhDlRlheQTpVKh8ElE1Oa6kADPV6kJM8GL+UAL4HbSrGhblHLffD6fGO3zVAIInucdDVLytbVWoTnV4n4T/R86XfdSIvovzbTX20UmwzEjylWBDd6/kQRY1qiaELFPEHK53PMzlvVVINIqH0oAPy8Ui29fu3btY6YPrWp6KUDYxStGJwhsoVwsxLKM0hZVInoN/hg8rO8R4rtjHK1Be3v7c2dkszWPG8ftretaBwY+MPZuTmXPVk4QUoCg4qyKTKfrfpiIPq+hMiyqARA8zzsApHxU9Uh+ZCymLIdj5+K67jlIxCdDOu27fhieraMwmeyUAgiOczMAvFnrRU20XgAs64miII7PPMfhK1nlksp8hw+Iy3XiYQyegzsQ4D97w/BHceamqhsbILiuewoSMeWpztXCNkK0dWsfqEwqBQjJAASuPFgcGmICEA5c1Gq1AAJHJAsAfkBrNUJcEgRBrHzhSloRBx2q3OuOjG97plg8YrUmmE0BAqjEIOyyBwwBnAlA0C6GM1gozI1bpIc/qLJCXEXD8RbKrdZ/StkQAEwxgMCxabrVLr/vh+EbdXxSTdZxnMUCQI9jg+g8ndM/A4DAQ/0DCPEq1ROzOH6IBRAqrIX8lTlLZxBxjulq9ZMChGQAAlvxHIdZ6hjBa7WilMfl8/lVEyl5rnsvEOnd4yJeu62//8IkrqO8XO5EGCbTUm8aX6gjRlOA0DiAQIiLgyDgNLaazXWc36NmVgERvePg+fOvHx8BX7OzKgKe43BcCgeHKbdnI0BwXfdUlPLrgKgTMLiZpFwS5PN3KTt3EkHtF3hjAAKPeJsfhjof5UbuMAYIRYCHMkJs1OmVj2AyAKesUUjb0bE7VrbydcrxES/WsPGHNAZhd2+5rnsmEnHVPD3aYaK8H0X2hADBcbjAyUKN9WHRr/phqH2aUa2PTtt+BSH+n1b/KUBYCwDtWj4DfYDQ3d09e/vAQA8CHKnTF985B4rFp7Qf+nwXQfTK3ihiOtzYzQQgHBSGmdsA9IN6q4x2qpwgeI7DJ5gcsa/eEDf6QXCEusLkkp7jcHxcVtUeIl544MEHX60KJE324tixEEAvIJ6TzWYfj8P6OtH8jAACEX2Uiynp3M9wzXMgepcfRXxkVLeWAoRdXGscg8BWyidElnU1IOoSyUzK1OfpAwROJeMCNiYpabvtNROAIEqlI3SLsqQnCPoAoZxq9vDDSw3y0R/3w/AFKg8Wk4dykgChEgDHxZiUXzxQKtl+X18ilQNTgKCyS4ZlXMf5FWpwdDATYUnK81QzajzHYcbh2NchRPQ1EKIXETf7vj+aQKA+0+qSpgBhCyLy8Qan39RsfHIgiM7pjaIVNYVjCpgCBFEqvVb3BTCdsxhGlsFzHGY5fK/mskwIELyFC3NgWbcBwHwNmw9LgHPDmJz7I/25rnscEyzpxM1IgOVhGDJDqHJLAYI+QGDnmgA41lM5hj/2qKPmFmbOVI4yryz2JkI8MwiCSHnxJxF0XXcpEl0GAPNU7RHRjUEUMZ9J7DadAQIBrAnCcFFsJ1UMuLb9PkT8soa9Z4SUx/bk879T0UmaapkAHheI35NSPoOWdYvv+w+qjGMiGSOAoNshITpJ/blq9Z0ChF08FOsEgS0lDhAch4mR+KpA/esJYAAQfw9ESaXDcmQy15HXSae71w9DLYbQFCA0H0BwbZvTG3fJ9a71TOEaMUD0ICBORmerYGZU5N8qjKXK/wECCIMw1OZQqDaoqQAQKrw6Vxp8XTP4M06DruKv/XSLyKGUud58vk9xQzAfzAUAwHNNsvGz8gEA2EJEvwii6FIT43UHCFY2u9+aNWueMBmciU4KEJoeIHDxmeUma7uHdaQfhsw2ptxSgNB8AMFzHK66p3QVobzQjRE0ovKdqgCh07YXESLXGDikMe5NrhdNgABdjnOMBFid3Ah2s8SxKwwYbh4sFD6sk4lTd4AAAPcWpTxL9U4mrpNSgJAChLh7aCJ9lSPssbopKMrE7QAAE/FJREFUQGhKgPB3AOCvwqnWnlUAIQbT5R5fV12AwAPudJy3SICvoyYhlOFkh0pEuZaWlm1r1qx5ZDIbjQAIAIh3oxDv6u3t3WQ4IWW1FCCkAEF5s2gKpgCh/lkM5YelSZaJYgyC5zgpQJgCVMvPNoBQ3veuu5S4MmhjQAJ3+btyJVLLumciToXGAAQArnR2o5XNfqre1w0pQEgBguZ7X1k8BQgpQFDeLMkLpicIyfu0LhZNThBGBuK67puR6Ja6DKy60RICrNhZKJxd7eqhUQCBh7aNy6OWiK5VqYBm6qAUIKQAwXTv1NJLAUIKEGrtkTr+ngKEOjo3SdNxAEL5JCGX80oAnhCCCbUa0ghgLZVKXw37+nahATcFCFxZTKm06LjZcbGd48Mw/G29Zp0ChBQg1GtvpQAhBQj12lsKdlOAoOCkZhCJCxAqc0Avl1vE5d11WT9j+GCnBPhCGIafHLFhBhCkPImEuNikdC53LAEWhWG4JsZEJlQ1BAh/hFLpLL+vb73OmFIehAm9NTEPguNMySwGItocRNG+OvsjDVJMgxR19ksN2RQgJOjMeppKCCCMDpFrQiDAlQgwGwASY4ms6gOi+xFgWW8UlbMqjAECl3v2XPdWIHqTibMJ8Q1BEDBhTqLNCCAgPlKSclkURVr0uylAeBYBBIAfBGF4ls5mTQFCUwKExwHgeTrruAdkOS2NT2lHGjOJRro8HBONeyrwIDiO8ypBdBsg8ktxqjTJ37+CyO2JIqYmT7S5rvtCJPoAAQgEOBMA9kq0g4oxBLhTFIvvXrN27SOxAEKl4t/lJnntBLCFJ+tH0Y1JTvK4jo59hzKZe0CvGMszEuDjYRhyaV7llgIEA4DgutcA0XnKTmZBokcA8Qog2qGll6CwAFinWz42BQhNCBBs+8eA+FrNrfEwAHwbiDgDou6NAEqIyC+b4UZUJCmfCPr69AqMTTDSqQAQvPb2IyCbvQY0aI6HXUWPIoARKVDchSUhJBKVCPGOOCXpFcaBnY7zBiLaCxCPIKL3I6ISq7GC7bIIAiw/8JBDbowFENhQpTwr0/EuUe18jNyfQMp3+Pk8v9ATaWUu902bQgTo0DBIRHRlEEXv19CB6Q4QOjo69s1mMpyb+wYdvwDAxFcMnvd6kPIqAGA2ObVG9BgAnO9H0U/VFJpDKgUIzQcQ2tvbD5mRzfILX6dtlwCvTorqW6fjeshOBYDQ3d2d2bF9++eAiGtW6LQH/DDUKdSnY7vpZLsXLJg90NZ2eIYISwDXIqKTyCCJHrNaWjpiAwQeTC6Xy2aE+Lku2qtM5DOtbW2fW7lyJadCJtIMigFxv9rVAqc7QDAt9wwAk96XNmp9EtlMMYykAKH5AAIv554u1hRjSyWi6tn22wDxBh1jKOX5M+fM+ebKlSuLOnpxZJuhmmOc8e8pXcdxXi4A+LSJEwmMTxZEJnNAIgCh/Kez7bMB8Trt0sCsPFxD+/rh+MX4rVEvoBQgVF8rCdARhuG6iVbSaH0QbyyWShfk8/mk+PDjb7QaFlKAMH0AAj+jDpo//wbVMr5131wxOnAWLjxDWNbtOiaI6Ir+7ds/sWHDhn4dvTiyRgAB4K+iVDpet/BenHE2q667cOEJaFkfAYBXGI2RaEViAKEMElz3CwZHQuWx8z1KEEV8VRG7Gb2AAL7Z2tZ2oc5JxnQGCMcee+zcws6dVwLiW3UXpFY6oOH6bJIAS8Mw/JXuePaUfAoQmhQg2DYXXjpcc19sLUp5cD6f36qp13TibkfHyzCTmRDATzDgP4pM5hU9PT1cy6IhjT86CfFLCKCVPQQA3/PD0Ch4viETa3AnruN8EwHOBQCtWjI8zEQBAht0XfdDlVKm2m4goguCKPq6tuI4BcMX0MOEuDQIgl+r9j+dAULnwoUvIcvaoOqLsXK1AEKnbZ9GiPrxBESrRDb7xkY+pEzmP6KTAoTmBAiu674OiX6ku7YIcGtvGL5FV6/Z5E2fW6JUOqKRX+a5XG6vjBA/AYBuTR9uQqLze6NohabetBTnktKzZ836NCJ+WHeCiQOEcr31GTOuBsQ36g6Gg9ta29q6dL7iq/VhCBCAEJcEQfAd1XGb/tGsYvEQTiFR7YflOl33EiIaJbBQ1DUu9+w5zp9Mcm6pVFoc9PXdW2t8JvfAbJMA7gvCsL2W/Wb4PQUIzQkQPM87AKT8i9EeQbzbD4JTjHSbRKmrq6tVFovaV3WNBgjsLs9x7gaAkw1c93dBdLpu5pFBP1NCxcvlTgQhtLNgEgcI5UW17dcD4v8AQEbXewRwy6y2tiVxgmE8274GEPVS6YYH+gBa1qtUi0pNR4Bw+OGHz9h77ty/AsA+umvH8q1tbVmVtXNtewsimubx7pi3zz5zV6xYwSVMx+aLmwx5vA52d3fPiAtSy6DOcc4gAE6d3V9jYM/wNZ0fRRzP0zTNcxzO69YFZlf6Yfg+3UnUs1gTj4Uzr1oymZsQ8TW6YyvLI/5wW3//WzZs2MD8BEnvPzj55JNnrFixYtBobApKpgABEDf6QRCbqIczzZ588kl+TvAcJ/Wf53lHg5S/MS1gZGWz+w0ODj5dD3p/Ds7P5/PMWWEcO+fkctcJIZZwjIeVzV6ydevW0oYNG/i5lmhzXfc4JOJT27k6husCECoPx3cSwH8bkjl8qXVg4JKV5gExPC+zRSN6qx9FXIe85h9/ugEE27YPtQB+AIg5nU00KkuUP2j+fE8xkMt8jYYf0hupVLq4BNB36KGHblLss+q0+IH16EMPvZQymb1QynmAeL0fhrr3nrvZTgFCc54g8EJ5tn06IPI1g1mUN5EPAJeTEPkgCHTTJnfZKwsWLJjd1tZ2OCLOEVJaJMRX5j31lLti48a6gARjgMAPRcRjgiDoMXk+8MfHvHnzXJDyFEQ8P1Msvnj12rWcwjxp88xiRkZtSqLbAfGyTCbzUE9Pz1O1+pvs946Ojhdks9nDyo8govcS4reCILjT1Ob4k1QC+A0gflwIMZQdHPzzvWvXPmlqe4wedtr2a0yudesGEMp/QsdhxMIoXatuAwEMCClf3pvP85/QqJkeYVc6uwgB/tIbhj+YrPPpAhByudzzLb4SQjzdlD67/IeRslNjzdCz7VsAMV4wEdEqQLwLAbajlPf05PO/U9gwmMvljswKcawkmimEaCEpl44NXCPEFwVBwNcsxi0FCE0MEDxvAUjJpzSLjBeYFYlWEsAdCLDVKpV+pXh1iI7jnCCIjiKGuoj7E8AbEODAylgeJymXBfn8XbHGNoFyHIAAADv4hKsEsCZSYAt0XXc+SHkCADwHEfnr9eMjw8oUi/urAITOXO4cEmKXIkIGfnkaAH5IRPcLgId6o+gOFRvlOAjE06hyooqIxwLAGWN0e/0wPEblg7Jaf5O8p7YBwE+JqA8RB/0wvFplvNVkOl33/SRlJyAy+6JWqy9A8LxOkJKjzmdpjWpY+JetbW0nqxxXV7PtOs4vEeDlBv2WVQjgSQEwKfUyEWVNnN6oGARE7Aeimn8EItoHEE809VVF79uEeJEOg5jneTmScg0CtMTsm9X5xChCgI21bBEiAhF/BfCRefW+ie7yo+jUWrYm+z0FCM0LEHjdPNteToiXIcBz46xzWZf/awAhEjGV86Stsv9sAOBMimofTyUk+kZvFF1Qy5bJ73w0bgnxXQMCtJHuikB0HyI+UKt/CbA/AvBc28bLqgIE1nNd9yYkOrtWf4q//w35S12h0XD9g8WTXXH4YcinUDVPnKt1p/ghWwCiHyLiv/og+msJMS9KpT8OEW1taWlpo2JxvkBsB8QFY/sigDcrTHU3ESK6rK4AgXvsWrjwcGlZD5oMEAAe9MPwhSa6nuftB1I2hBpVd3yNAgi64zKVJyIJRO8K8nmmRlVufNf61ObNHFn7KWWlBgkyQAzCUJ3tscq4PNv+D0Dkkq1pDILGutU7BmFkKBWqeI6S5y/cpmoIcH1vGC6r16A8234lIP5vveyr2NUBCI7jvFQA/F7FbqNlTAFCR0fHgpZM5g+G4+U4BQalOwCRAZtFADNwGIiZfJDvDhAQD607QOBePcfh8s7HmTiCEBcHQVAzKr6KbfRclwO+mq7YxzQDCBykc60fhu8yWV/W6bTtb9BwUKnWVZRpfyp6KUDY1UvTKUhx/Pp7jsMxBIeo7ItGydQbIHTa9iJC5K9o7dz4pHwgAT4ShuHnVe11Og5fV9/GL0JVnUbImQIEz7Z9QHQbMUaDPphe/LDGAIThtCKmYn6pwUD/jJZ1am9v7/26uo7jOAIg0NWrt/x0AggE8NsgDI+PE8nr5XLHA+K3APHgevte1X4KEJ5FAGG4MBA/J+JfNahusFpyRDf6UbTU9Oi6lvlK1VsuvW6SQljLvOrvJT8MdTLdLDeXuwiF+ERSX8mqA51UTojn+b7/D11bnm3fB4hH6+o1Qh6JTuc4jYYABJ6Qa9tvQsRbTL4SmaBkZlvb23VTz8r5zqXSDQncrye6JtMIIBQR4IzeMPxZXAd1Og5nvTBJlllUedwB7K7/lDU4+JI169c/YWo6vWJo7hiEsevqOc5FAPAxw6wr0y0ysR7RPQUpl/f19dWMqTHtvNNxLiQAZq/dY/+5WqRq4+fW2d5+iMxmL63ET+iAC1M31dQjopuDKNJmnG1igLAahFju+/6GhgEERqwIcBUOZzXoNg4qeafJi4hraAPRdXGi83UHW0t+mgAELmv6piAIbqs1X9XfXdc9E4k4WteIg0G1HxU5BBgkgEv9MPyMinw1mRQgTB2A0N3dPXNHf/9bAZErur7IdM0T1NtORO8MouimBG3uYuqYXO6wohA37Mlnoy5A4AnkcrnDMkIwo2VTxC5xDFYQRdpXNU0KENZBqXSO39e3nn3dMIDAnZWPkoXgokyH6m56AnjckvIkxTS2sea5dvZSArhMlyRCd4yq8lMdICDAYyWAt4dhyMxcRtG7E/mKAR0CvJ+L46j6s25yMTMZUoAwdQBC5cWTFUI8TwAwyVu89McENiUCnN8bht9IwNSEJmzbfpHFDHtEe+R6zwQg8GQY0G3fvt1BIo5v2+NNdx6O45yFAF8zqDNRz7k+XSJaHEURB06Wn+sNBQhlkGDIjVD2ihAn+b5vFHnr2fZ7mYACAObV08MqtqcwQOCAxJszzzxz4eoHHuA83bo117a/CohnJ5KCZj7KFX4YvtpUPQUIUwsgjF3nCjkPn2TtsbiERgCEyjOZ+SC4mE/Dj+wLpVJXX19fr+l/rFLXhUtXMytr1tROXD1dgMDPNxTi3CYKon/KD8O9x/uh4QCBX/Oe4zxTLS9WZZH++fTTMzcaMoy5L37x3jhnDt+Xd6n0VS+ZKQoQfg2ID/pB8I56+WW8Xffoo+fDjBlXIwCnumqfOiUwzhQgVJw4nbMYJton7ste9kJsaeEv+JcAwPMT2E9aJhoFEMogIZe7CpgEqNFBc0S+H0WdWo7ZXZjfY5cCEZMBccB0w1umpeU5q1ev1vpocl33VC4qVTnZjusDozkTwENI9ECR6Jx8Pr+5GQACnyLwl/ynTWZERJcGUcTBREatUqhlOQCcBgAvMzKiqcT32ZLoW4hYps0cLBS+vG7dui06ZlzXPQGJuhHgGIpBAKXTZ1kW8R4E6Nm+c+fn1q9fP6CtH1+BGRdfAYiLgei0RjzAiGtyMOU00YN+FN1sOoX0BGHqniCMrHmFBvnVAuBIAPggAMw03Q8aen0AcJcgurOBxYbQdd2jgejzQHQiItY3cJFoPQFwtcV/BlH0RQ3fTChaYbblYFPOlhvLdpiE+Wo2tgHRrYD4hAS4OgxDI96dSkbJMiISAnE56Ze31p8f0SOAeJMA+E1PGDKZYdXGD1/l8sYjFkiIDwVBEOmP6l8aJv0ioiSiUuvs2afrZjSMH2uXbXdIgIMAkYPQjoozl/G6HC8BRF9HgBESjEJmxox7dRFmtTGViaeEGEkXbeVoUyL6d0w4EpkA7kSi60mI+4MgYKKrRGMNTPzdmcstJMQDEXEmF/VKMIeb57YKiL7E4xIAjyfxYHYcZ7EgerdO0CUibiGi6/0o4ip2TdM8x7kOiJj5T6fd7kfRVToKLFtZ58t19fwoqivhkWfbfN3E7KkeEX0AEZNgAAUOckPEGwjxbpSSXxObgiC4T3f+ScgzNbIgOlISLTIpDzzZGAjgUZDyPcwIiER/mTlnznpTptzJ+unq6tpfFgrM3sjt8rEU6gn4iIOzz0Ypt5MQO7PZ7JoknuuVcTFIOx6lnEPDp6afQcTkOB+IHiOAr+DwB9Dm3ihaXcsf2N3ern/H9tzn9sddWJN+Rz65161btzWpF5bruntnC4XyIhQs6yxE5JLKqlUGmcHqVol4bUuxuGnE2dTaWtyyZcuWelTlGreg2N7evlcb4i7MWYOW9UJrmHhIveQ20f0M/LKFAn+9wE4hBvL5PPu5GRvXUnjeTCnLxEqFbHYhSHklIpaLqCi0v5OUn8JM5s7M0FC5qBe2te1YtWoV87Un1pjSlvO155RKygRQ2yyLduzYsaMBe0drnsw6mB0Y0IrUHmxtHezp6dmh1dFwAFoGtmzRJjhbqXkqpzuuEXkOkNu2bdvckf1XQjyRLItz8+cr2STaSACfsLLZ34qdO8vAe1uptHUPndBVHTLPsbB1azlea9Cy5lmITPvMqXxqJyiInHl2iVUojAJdAVBIqPiQkptZqKOjY99ZldiEIuI+YFl8CsT1X5T2MgH8WEj5WavCyrtTCMrn88x5YFYMUHHkCxYsaGltbd179BlnWa/B4Rg6dVZWonvAst6bGRoqXx2YvJf+H2r0YRq70KjdAAAAAElFTkSuQmCC;" vertex="1" parent="1">
                    <mxGeometry x="380" y="404" width="141.81" height="72" as="geometry"/>
                </mxCell>
                <mxCell id="9" value="NFS" style="rounded=0;whiteSpace=wrap;html=1;strokeWidth=2;fontSize=14;fillColor=#fad7ac;strokeColor=#b46504;" vertex="1" parent="1">
                    <mxGeometry x="550" y="80" width="120" height="60" as="geometry"/>
                </mxCell>
                <mxCell id="10" value="NFS" style="rounded=0;whiteSpace=wrap;html=1;strokeWidth=2;fontSize=14;fillColor=#fad7ac;strokeColor=#b46504;" vertex="1" parent="1">
                    <mxGeometry x="550" y="410" width="120" height="60" as="geometry"/>
                </mxCell>
                <mxCell id="11" value="" style="endArrow=none;dashed=1;html=1;entryX=0.5;entryY=1;entryDx=0;entryDy=0;exitX=0.5;exitY=0;exitDx=0;exitDy=0;strokeWidth=2;fontSize=14;" edge="1" parent="1" source="10" target="9">
                    <mxGeometry width="50" height="50" relative="1" as="geometry">
                        <mxPoint x="1060" y="460" as="sourcePoint"/>
                        <mxPoint x="1110" y="410" as="targetPoint"/>
                    </mxGeometry>
                </mxCell>
                <mxCell id="12" value="Job Info DB" style="rounded=0;whiteSpace=wrap;html=1;strokeWidth=2;fontSize=14;fillColor=#fad7ac;strokeColor=#b46504;" vertex="1" parent="1">
                    <mxGeometry x="720" y="80" width="120" height="60" as="geometry"/>
                </mxCell>
                <mxCell id="13" value="Job Info DB" style="rounded=0;whiteSpace=wrap;html=1;strokeWidth=2;fontSize=14;fillColor=#fad7ac;strokeColor=#b46504;" vertex="1" parent="1">
                    <mxGeometry x="720" y="410" width="120" height="60" as="geometry"/>
                </mxCell>
                <mxCell id="14" value="" style="endArrow=none;dashed=1;html=1;entryX=0.5;entryY=1;entryDx=0;entryDy=0;exitX=0.5;exitY=0;exitDx=0;exitDy=0;strokeWidth=2;fontSize=14;" edge="1" parent="1" source="13" target="12">
                    <mxGeometry width="50" height="50" relative="1" as="geometry">
                        <mxPoint x="1230" y="460" as="sourcePoint"/>
                        <mxPoint x="1280" y="410" as="targetPoint"/>
                    </mxGeometry>
                </mxCell>
                <mxCell id="16" value="" style="endArrow=classic;html=1;strokeWidth=2;startArrow=classic;startFill=1;fillColor=#a20025;strokeColor=#6F0000;" edge="1" parent="1">
                    <mxGeometry width="50" height="50" relative="1" as="geometry">
                        <mxPoint x="290" y="200" as="sourcePoint"/>
                        <mxPoint x="450" y="200" as="targetPoint"/>
                    </mxGeometry>
                </mxCell>
                <mxCell id="17" value="1. Gets running jobs" style="edgeLabel;html=1;align=center;verticalAlign=middle;resizable=0;points=[];fontSize=14;" vertex="1" connectable="0" parent="16">
                    <mxGeometry x="0.3875" relative="1" as="geometry">
                        <mxPoint x="-31" y="-20" as="offset"/>
                    </mxGeometry>
                </mxCell>
                <mxCell id="18" value="" style="endArrow=classic;html=1;strokeWidth=2;startArrow=classic;startFill=1;fillColor=#a20025;strokeColor=#6F0000;" edge="1" parent="1">
                    <mxGeometry width="50" height="50" relative="1" as="geometry">
                        <mxPoint x="290" y="250" as="sourcePoint"/>
                        <mxPoint x="610" y="250" as="targetPoint"/>
                    </mxGeometry>
                </mxCell>
                <mxCell id="19" value="2. Fetchs job metrics" style="edgeLabel;html=1;align=center;verticalAlign=middle;resizable=0;points=[];fontSize=14;" vertex="1" connectable="0" parent="18">
                    <mxGeometry x="0.3875" relative="1" as="geometry">
                        <mxPoint x="-142" y="-20" as="offset"/>
                    </mxGeometry>
                </mxCell>
                <mxCell id="20" value="Estimation" style="shape=note;whiteSpace=wrap;html=1;backgroundOutline=1;darkOpacity=0.05;fontSize=14;strokeWidth=2;size=18;fillColor=#fad9d5;strokeColor=#ae4132;" vertex="1" parent="1">
                    <mxGeometry x="210" y="280" width="160" height="40" as="geometry"/>
                </mxCell>
                <mxCell id="21" value="" style="endArrow=none;dashed=1;html=1;entryX=0.5;entryY=1;entryDx=0;entryDy=0;exitX=0.5;exitY=0;exitDx=0;exitDy=0;strokeWidth=2;fontSize=14;" edge="1" parent="1" source="3" target="20">
                    <mxGeometry width="50" height="50" relative="1" as="geometry">
                        <mxPoint x="290" y="390" as="sourcePoint"/>
                        <mxPoint x="290" y="140" as="targetPoint"/>
                    </mxGeometry>
                </mxCell>
                <mxCell id="22" value="" style="endArrow=classic;html=1;strokeWidth=2;startArrow=classic;startFill=1;fillColor=#a20025;strokeColor=#6F0000;" edge="1" parent="1">
                    <mxGeometry width="50" height="50" relative="1" as="geometry">
                        <mxPoint x="290" y="370" as="sourcePoint"/>
                        <mxPoint x="780" y="370" as="targetPoint"/>
                    </mxGeometry>
                </mxCell>
                <mxCell id="23" value="3. Updates job info" style="edgeLabel;html=1;align=center;verticalAlign=middle;resizable=0;points=[];fontSize=14;" vertex="1" connectable="0" parent="22">
                    <mxGeometry x="0.3875" relative="1" as="geometry">
                        <mxPoint x="-260" y="-20" as="offset"/>
                    </mxGeometry>
                </mxCell>
            </root>
        </mxGraphModel>
    </diagram>
</mxfile>